<svg xmlns="http://www.w3.org/2000/svg" width="100.891" height="40.195" viewBox="0 0 100.891 40.195"><defs><style>.a{fill:#ec411b;}.b{fill:#002581;}.c{fill:#464749;}</style></defs><g transform="translate(-46.329 -36.438)"><path class="a" d="M179.74,53.179a55.183,55.183,0,0,0-9.3-5.989,52.8,52.8,0,0,1,7.6,5.041c10.66,8.436,16.29,19.082,12.575,23.779-1.98,2.5-6.385,2.818-11.364,1.265-1.41-.44-1.171,1.372-.53,1.624,6.426,2.538,11.932,2.452,14.317-.559,3.932-4.969-2.026-16.233-13.307-25.161" transform="translate(-47.038 -4.075)"/><path class="a" d="M154.328,56.907c-3.154-4.029-4.354-7.949-2.693-10.047,1.295-1.636,4.173-1.843,7.425-.828.922.286.764-.9.347-1.063-4.2-1.656-7.794-1.6-9.352.368-1.887,2.385-.286,6.983,3.616,11.569Z" transform="translate(-39.011 -2.786)"/><path class="b" d="M46.329,76.846V64.362A1.456,1.456,0,0,1,47.787,62.9h8.675v2.392h-7.3v3H54.6v.935a1.455,1.455,0,0,1-1.461,1.459H49.166v6.16Z" transform="translate(0 -10.03)"/><path class="b" d="M72.664,67.993v6.325q0,2.877-1.5,3.767a6.3,6.3,0,0,1-3.284.894,6.527,6.527,0,0,1-3.181-.973q-1.439-.892-1.438-3.688V67.993H66.1v6.891a1.7,1.7,0,0,0,.566,1.419,2.044,2.044,0,0,0,1.3.447,2.129,2.129,0,0,0,1.318-.447,1.669,1.669,0,0,0,.587-1.419V69.373a1.351,1.351,0,0,1,.386-.972,1.308,1.308,0,0,1,.993-.408Z" transform="translate(-6.417 -11.959)"/><path class="b" d="M83.934,76.846a21.1,21.1,0,0,1-2.9-.04q-1.559-.122-1.561-1.987V62.9h1.459a1.285,1.285,0,0,1,.933.407,1.324,1.324,0,0,1,.4.972V66.1h1.662v.568a1.305,1.305,0,0,1-.4.992,1.359,1.359,0,0,1-.973.386h-.284v6c0,.46.271.688.81.688h.851Z" transform="translate(-12.562 -10.03)"/><path class="b" d="M96.284,67.993v6.325q0,2.877-1.5,3.767a6.3,6.3,0,0,1-3.283.894,6.525,6.525,0,0,1-3.181-.973q-1.44-.892-1.439-3.688V67.993h2.837v6.891a1.7,1.7,0,0,0,.567,1.419,2.05,2.05,0,0,0,1.3.447A2.125,2.125,0,0,0,92.9,76.3a1.671,1.671,0,0,0,.589-1.419V69.373a1.353,1.353,0,0,1,.385-.972,1.3,1.3,0,0,1,.992-.408Z" transform="translate(-15.369 -11.959)"/><path class="b" d="M102.574,78.775V73.546a6.668,6.668,0,0,1,.466-2.653,4.4,4.4,0,0,1,1.277-1.725,5.035,5.035,0,0,1,1.8-.891,8,8,0,0,1,2.129-.284h.4v2.878h-.932a2.372,2.372,0,0,0-1.744.568,2.43,2.43,0,0,0-.566,1.784v5.551Z" transform="translate(-21.316 -11.959)"/><path class="b" d="M120,75.305h2.027a4.435,4.435,0,0,1-1.7,2.595,5.17,5.17,0,0,1-3.161.929,4.512,4.512,0,0,1-3.606-1.5,6.068,6.068,0,0,1-1.3-4.173,6.007,6.007,0,0,1,1.258-4.054,4.515,4.515,0,0,1,3.607-1.5,4.851,4.851,0,0,1,3.77,1.459,6.18,6.18,0,0,1,1.3,4.174v.447a.688.688,0,0,1-.042.284h-7.011a2.787,2.787,0,0,0,.608,1.863,1.914,1.914,0,0,0,1.58.65A2.288,2.288,0,0,0,118.5,76.2a.564.564,0,0,0,.224-.142q.1-.1.223-.224a.887.887,0,0,1,.3-.325,1.224,1.224,0,0,1,.75-.2m-4.864-3.163h4.135a2.623,2.623,0,0,0-.568-1.621,1.949,1.949,0,0,0-1.5-.567,1.98,1.98,0,0,0-1.459.567,2.328,2.328,0,0,0-.608,1.621" transform="translate(-24.987 -11.811)"/><path class="a" d="M131.309,62.831h1.827V75.306h5.977v1.513h-7.8Z" transform="translate(-32.206 -10.003)"/><path class="b" d="M168.524,46.4c-.186-.152-.37-.3-.556-.451-11.283-8.928-23.615-12.138-27.547-7.171-2.4,3.041-1.094,8.443,2.862,14.222a1.127,1.127,0,0,0-.49.95,1.073,1.073,0,0,0,1.1,1.121,1.131,1.131,0,1,0,.041-2.262,1.223,1.223,0,0,0-.244.022c-3.622-5.319-4.4-10.309-2.142-13.162,3.863-4.886,15.853-1.859,26.976,6.731" transform="translate(-35.202)"/><rect class="b" width="1.826" height="10.045" transform="translate(107.819 56.771)"/><path class="a" d="M151.441,71.772c0-1.058-.02-1.889-.082-2.719h1.618l.1,1.661h.043a3.717,3.717,0,0,1,3.321-1.868c1.389,0,3.548.83,3.548,4.274V79.1h-1.826v-5.79c0-1.62-.6-2.968-2.324-2.968a2.679,2.679,0,0,0-2.574,2.72V79.1h-1.827Z" transform="translate(-39.805 -12.282)"/><path class="a" d="M170.173,70.924h.042c.248-.353.578-.788.87-1.142l2.968-3.465h2.18l-3.86,4.131,4.42,5.914h-2.241l-3.446-4.815-.933,1.038v3.778h-1.806V61.625h1.806Z" transform="translate(-46.251 -9.546)"/><path class="c" d="M63.946,91.036h2.278l-.059.468H65.25l-.438,3.017h-.47l.432-3.017h-.9Z" transform="translate(-6.65 -20.692)"/><path class="c" d="M71.617,91.036h1.642l-.075.468H72.017l-.133.866h1.17l-.068.467H71.821l-.176,1.209H72.8l-.064.476H71.094Z" transform="translate(-9.386 -20.692)"/><path class="c" d="M81.807,91.283l-.151.548a1.4,1.4,0,0,0-1.048-.483,1.351,1.351,0,0,0-.992.4,1.336,1.336,0,0,0-.4.984,1.309,1.309,0,0,0,.377.947,1.234,1.234,0,0,0,.923.388,1.853,1.853,0,0,0,.912-.273l-.079.578a2.034,2.034,0,0,1-.818.2,1.789,1.789,0,0,1-1.822-1.826,1.81,1.81,0,0,1,.556-1.352,1.9,1.9,0,0,1,1.383-.541,1.857,1.857,0,0,1,1.161.435" transform="translate(-12.271 -20.621)"/><path class="c" d="M88.473,91.036h.477l-.2,1.354h1.523l.2-1.354h.465l-.521,3.485h-.458l.246-1.673H88.684l-.244,1.673h-.483Z" transform="translate(-15.776 -20.692)"/><path class="c" d="M97.539,90.768l2,2.646.377-2.479h.453l-.525,3.621-2.012-2.646-.365,2.51h-.465Z" transform="translate(-19.206 -20.59)"/><path class="c" d="M106.562,92.745a1.8,1.8,0,0,1,.575-1.347,1.962,1.962,0,0,1,1.408-.55,1.775,1.775,0,0,1,1.3.519,1.7,1.7,0,0,1,.53,1.269,1.852,1.852,0,0,1-.568,1.369,1.9,1.9,0,0,1-1.388.564,1.828,1.828,0,0,1-1.328-.523,1.747,1.747,0,0,1-.531-1.3m3.311-.07a1.269,1.269,0,0,0-.381-.95,1.313,1.313,0,0,0-.964-.377,1.451,1.451,0,0,0-1.039.4,1.362,1.362,0,0,0-.04,1.939,1.361,1.361,0,0,0,.983.374,1.422,1.422,0,0,0,1.02-.4,1.326,1.326,0,0,0,.421-.988" transform="translate(-22.827 -20.621)"/><path class="c" d="M117.685,91.036h.465l-.443,3.009h1.026l-.075.476h-1.5Z" transform="translate(-26.845 -20.692)"/><path class="c" d="M124.207,92.745a1.8,1.8,0,0,1,.574-1.347,1.969,1.969,0,0,1,1.41-.55,1.79,1.79,0,0,1,1.3.519,1.705,1.705,0,0,1,.528,1.269,1.849,1.849,0,0,1-.569,1.369,1.9,1.9,0,0,1-1.386.564,1.83,1.83,0,0,1-1.33-.523,1.747,1.747,0,0,1-.531-1.3m3.311-.07a1.271,1.271,0,0,0-.381-.95,1.312,1.312,0,0,0-.964-.377,1.453,1.453,0,0,0-1.04.4,1.363,1.363,0,0,0-.04,1.939,1.362,1.362,0,0,0,.982.374,1.419,1.419,0,0,0,1.02-.4,1.323,1.323,0,0,0,.421-.988" transform="translate(-29.515 -20.621)"/><path class="c" d="M138.05,91.509l-.378.343a1.241,1.241,0,0,0-.5-.383,1.534,1.534,0,0,0-.614-.126,1.358,1.358,0,0,0-1,.435,1.423,1.423,0,0,0-.427,1.029,1.268,1.268,0,0,0,.337.9,1.11,1.11,0,0,0,.848.356,1.242,1.242,0,0,0,1.129-.641h-.873v-.466h1.546a1.95,1.95,0,0,1-.6,1.175,1.712,1.712,0,0,1-1.186.435,1.6,1.6,0,0,1-1.209-.5,1.763,1.763,0,0,1-.474-1.27,1.92,1.92,0,0,1,.555-1.359,1.86,1.86,0,0,1,1.412-.591,1.966,1.966,0,0,1,.781.164,1.773,1.773,0,0,1,.666.5" transform="translate(-33.467 -20.621)"/><path class="c" d="M145.142,91.036h.471l-.511,3.485h-.471Z" transform="translate(-37.255 -20.692)"/><path class="c" d="M150.812,91.036h1.64l-.072.468h-1.167l-.134.866h1.17l-.067.467h-1.166l-.178,1.209H152l-.064.476h-1.646Z" transform="translate(-39.399 -20.692)"/><path class="c" d="M160.416,91.425l-.406.269a.774.774,0,0,0-.629-.345.636.636,0,0,0-.427.162.467.467,0,0,0-.186.364.41.41,0,0,0,.134.306,2.145,2.145,0,0,0,.533.315,1.793,1.793,0,0,1,.6.427.873.873,0,0,1,.2.586.966.966,0,0,1-.352.74,1.193,1.193,0,0,1-.826.32,1.341,1.341,0,0,1-.715-.207,1.187,1.187,0,0,1-.486-.548l.446-.207a.858.858,0,0,0,.745.46.727.727,0,0,0,.478-.176.505.505,0,0,0,.211-.395.405.405,0,0,0-.138-.3,2.106,2.106,0,0,0-.537-.319,1.683,1.683,0,0,1-.6-.419.872.872,0,0,1-.2-.58.946.946,0,0,1,.325-.725,1.106,1.106,0,0,1,.782-.3,1.188,1.188,0,0,1,1.042.577" transform="translate(-42.266 -20.621)"/></g></svg>