<svg xmlns="http://www.w3.org/2000/svg" xmlns:xlink="http://www.w3.org/1999/xlink" width="1290" height="645" viewBox="0 0 1290 645"><defs><clipPath id="a"><rect width="1290" height="645" fill="none"/></clipPath></defs><g transform="translate(-0.5)"><g transform="translate(0.5)" clip-path="url(#a)"><g transform="translate(318.762 -218.756)"><g transform="translate(4.652 3.996)"><g transform="translate(897.146 3.061)"><path d="M672.435,6.345,546.92-63.024l33.847-30.3L672.6-25.811l.007-1.3L581.047-94.423a.524.524,0,0,0-.663.031L545.668-63.313a.527.527,0,0,0-.17.45.52.52,0,0,0,.267.4l126.664,70Z" transform="translate(-545.494 94.526)" fill="#c4c4c4"/></g><g transform="translate(897.145 34.14)"><path d="M671.952,84.057l-124-162.511L672.429-9.661l.007-1.2L546.273-80.582a.521.521,0,0,0-.652.114.526.526,0,0,0-.02.663L671.943,85.779Z" transform="translate(-545.494 80.649)" fill="#c4c4c4"/></g><g transform="translate(509.328 897.261)"><path d="M374.86,382.148l168.847-76.13,16.548,77.078,1.075,0L544.6,305.16a.522.522,0,0,0-.728-.367L372.329,382.134Z" transform="translate(-372.329 -304.745)" fill="#c4c4c4"/></g><g transform="translate(909.046 941.31)"><path d="M661.575,324.413,550.808,359.795l3.4.017,107.361-34.294Z" transform="translate(-550.808 -324.413)" fill="#c4c4c4"/></g><g transform="translate(931.861)"><path d="M653.391-25.418,563.053-91.83l90.692-3.01.007-1.053L561.5-92.831a.531.531,0,0,0-.486.37.528.528,0,0,0,.193.58l92.174,67.763Z" transform="translate(-560.995 95.893)" fill="#c4c4c4"/></g><g transform="translate(897.831 380.556)"><path d="M670.3,142.295l-122.254-7.207,98.774-59.9,23.728,18.474.007-1.326-23.375-18.2a.527.527,0,0,0-.6-.034L546.053,135.063a.526.526,0,0,0,.242.974l124,7.31Z" transform="translate(-545.8 -74.03)" fill="#c4c4c4"/></g><g transform="translate(113.871 936.152)"><path d="M196.969,358.6l20.138-34.346,4.058,34.469,1.059.007-4.257-36.154a.524.524,0,0,0-.414-.452.53.53,0,0,0-.562.249l-21.238,36.221Z" transform="translate(-195.753 -322.11)" fill="#c4c4c4"/></g><g transform="translate(885.5 906.734)"><path d="M661.575,324.413,550.808,359.795l3.4.017,107.362-34.294Z" transform="translate(-527.261 -289.837)" fill="#c4c4c4"/><path d="M674.638,337.835,558.506,308.987a.535.535,0,0,0-.636.383l-17.576,69.443,1.084,0,17.381-68.681,115.871,28.783Z" transform="translate(-540.294 -308.974)" fill="#c4c4c4"/></g><g transform="translate(907.478 674.804)"><path d="M663.7,225.614l-63.448,36.413-47.918-12.8L663.8,206.544l.007-1.129L550.445,248.823a.526.526,0,0,0,.052,1L600.19,263.1a.556.556,0,0,0,.135.018.524.524,0,0,0,.264-.069l63.1-36.216Z" transform="translate(-550.108 -205.415)" fill="#c4c4c4"/></g><g transform="translate(680.557 897.261)"><path d="M466.557,383.1l-16.535-77.017,64.09,22.738L486.426,383.2l1.176.007,27.717-54.442a.526.526,0,0,0,.02-.434.534.534,0,0,0-.311-.3l-65.542-23.254a.525.525,0,0,0-.69.6L465.482,383.1Z" transform="translate(-448.785 -304.745)" fill="#c4c4c4"/></g><g transform="translate(718.198 920.513)"><path d="M466.768,370.337l27.3-53.618,33.961,53.931,1.245.007-34.808-55.282a.49.49,0,0,0-.47-.244.522.522,0,0,0-.443.287l-27.957,54.912Z" transform="translate(-465.592 -315.127)" fill="#c4c4c4"/></g><g transform="translate(746.097 920.517)"><path d="M512.583,370.649l1.245.007L479.975,316.89l115.7,54.182,2.506.013L478.8,315.179a.526.526,0,0,0-.67.755Z" transform="translate(-478.049 -315.128)" fill="#c4c4c4"/></g><g transform="translate(746.097 906.734)"><path d="M478.351,323.759,595.676,378.7l2.508.013L480.568,323.636l154.278-13.549-17.395,68.726,1.084,0,17.511-69.19a.533.533,0,0,0-.11-.47.542.542,0,0,0-.446-.181L478.53,322.76a.525.525,0,0,0-.179,1Z" transform="translate(-478.049 -308.974)" fill="#c4c4c4"/></g><g transform="translate(135.038 936.152)"><path d="M210.509,358.728l-4.128-35.043,54.583,35.3,1.951.009-56.9-36.8a.521.521,0,0,0-.562-.007.527.527,0,0,0-.244.508l4.244,36.024Z" transform="translate(-205.204 -322.11)" fill="#c4c4c4"/></g><g transform="translate(483.065 576.039)"><path d="M366.521,203.909a.539.539,0,0,1-.262-.069.529.529,0,0,1-.251-.349l-5.4-26.075a.527.527,0,0,1,.09-.414.521.521,0,0,1,.365-.213l133.47-15.467a.508.508,0,0,1,.576.41.527.527,0,0,1-.354.611L366.684,203.885A.509.509,0,0,1,366.521,203.909Zm-4.761-26.143,5.16,24.938,122.492-39.73Z" transform="translate(-360.602 -161.315)" fill="#c4c4c4"/></g><g transform="translate(64.69 895.719)"><path d="M174.848,380.726l6.884-75.239,62.225,39.7-20.98,35.784,1.214.007,20.929-35.7a.525.525,0,0,0-.17-.708l-63.38-40.436a.54.54,0,0,0-.515-.029.53.53,0,0,0-.291.426l-6.97,76.186Z" transform="translate(-173.793 -304.056)" fill="#c4c4c4"/></g><g transform="translate(71.657 819.693)"><path d="M240.808,387.62a.523.523,0,0,1-.28-.083L177.148,347.1a.525.525,0,0,1-.02-.873L285.336,270.2a.525.525,0,0,1,.793.618L241.3,387.284a.535.535,0,0,1-.327.311A.591.591,0,0,1,240.808,387.62Zm-62.433-40.982L240.551,386.3l43.976-114.248Z" transform="translate(-176.904 -270.109)" fill="#c4c4c4"/></g><g transform="translate(135.038 819.692)"><path d="M397.853,390.683h-.007L205.721,387.62a.523.523,0,0,1-.482-.712l44.827-116.461a.524.524,0,0,1,.822-.22l147.3,119.524a.525.525,0,0,1-.334.932Zm-191.361-4.1,189.852,3.028L250.788,271.5Z" transform="translate(-205.204 -270.109)" fill="#c4c4c4"/></g><g transform="translate(135.038 936.152)"><path d="M260.965,358.985l1.951.009-55.36-35.8,188.313,3-60.216,33.173,2.159.011,60.3-33.217a.525.525,0,0,0-.244-.985L205.739,322.11h-.007a.525.525,0,0,0-.289.965Z" transform="translate(-205.204 -322.11)" fill="#c4c4c4"/></g><g transform="translate(265.487 939.216)"><path d="M265.61,357.681l58.554-32.257-19.937,32.454,1.23,0,20.644-33.6a.53.53,0,0,0-.067-.638.524.524,0,0,0-.634-.1L263.451,357.67Z" transform="translate(-263.451 -323.478)" fill="#c4c4c4"/></g><g transform="translate(306.263 939.215)"><path d="M282.888,357.883l20.434-33.262,116.353,33.961,3.819.02L303.232,323.5a.514.514,0,0,0-.6.228l-20.978,34.149Z" transform="translate(-281.658 -323.477)" fill="#c4c4c4"/></g><g transform="translate(616.536 483.366)"><path d="M642.819,302.832a.476.476,0,0,1-.193-.038l-222.1-89.169a.525.525,0,0,1-.139-.894l112.438-92.674a.506.506,0,0,1,.425-.112.516.516,0,0,1,.361.246L643.271,302.035a.53.53,0,0,1-.049.614A.522.522,0,0,1,642.819,302.832ZM421.743,212.978,641.56,301.235,533.028,121.256Z" transform="translate(-420.198 -119.936)" fill="#c4c4c4"/></g><g transform="translate(728.976 442.163)"><path d="M580.584,325.637a.523.523,0,0,1-.448-.253L470.479,143.539a.531.531,0,0,1-.051-.428.519.519,0,0,1,.287-.322l92.134-41.2a.516.516,0,0,1,.481.027.525.525,0,0,1,.258.41L581.11,325.071a.527.527,0,0,1-.363.542A.517.517,0,0,1,580.584,325.637Zm-108.9-182.132,108.2,179.431L562.6,102.848Z" transform="translate(-470.404 -101.538)" fill="#c4c4c4"/></g><g transform="translate(821.11 441.514)"><path d="M529.589,326l-.045,0a.525.525,0,0,1-.477-.482L511.545,102.466a.528.528,0,0,1,.137-.4.539.539,0,0,1,.383-.17l76.721-.649a.735.735,0,0,1,.419.2.527.527,0,0,1,.094.455L530.1,325.6A.524.524,0,0,1,529.589,326ZM512.636,102.943l17.238,219.41,58.231-220.048Z" transform="translate(-511.543 -101.248)" fill="#c4c4c4"/></g><g transform="translate(838.632 645.688)"><path d="M701.909,221.531l-113.083,43.3-67.573-51.987,180.8-19.375,0-1.057L519.837,211.941a.528.528,0,0,0-.45.381.52.52,0,0,0,.186.558l68.845,52.966a.519.519,0,0,0,.508.074L701.9,222.66Z" transform="translate(-519.367 -192.414)" fill="#c4c4c4"/></g><g transform="translate(821.109 369.102)"><path d="M512.067,143.029a.532.532,0,0,1-.486-.329.525.525,0,0,1,.123-.576l76.4-73.062a.525.525,0,0,1,.569-.105.532.532,0,0,1,.32.482l.32,72.412a.523.523,0,0,1-.52.526l-76.721.652Zm75.881-72.363-74.558,71.3,74.872-.636Z" transform="translate(-511.543 -68.915)" fill="#c4c4c4"/></g><g transform="translate(897.146 34.141)"><path d="M671.392,193.747,546.907,254l-.361-332.567,125.4,164.345.009-1.722L546.437-80.443a.523.523,0,0,0-.587-.177.523.523,0,0,0-.356.5l.365,334.961a.526.526,0,0,0,.244.446.54.54,0,0,0,.278.081.52.52,0,0,0,.231-.054l124.774-60.393Z" transform="translate(-545.494 80.649)" fill="#c4c4c4"/></g><g transform="translate(897.51 369.103)"><path d="M546.5,142.377a.526.526,0,0,1-.522-.522l-.32-72.412a.52.52,0,0,1,.173-.392.538.538,0,0,1,.412-.132L647.09,80.372a.525.525,0,0,1,.213.972L546.775,142.3A.5.5,0,0,1,546.5,142.377Zm.211-72.347.313,70.892,98.418-59.678Z" transform="translate(-545.657 -68.916)" fill="#c4c4c4"/></g><g transform="translate(897.509 308.536)"><path d="M670.969,85.147l-24.158,28.716-98.766-11.218,123.139-59.6.007-1.171L545.953,102.491a.525.525,0,0,0,.17.994l100.849,11.453.058,0a.523.523,0,0,0,.4-.188L670.96,86.791Z" transform="translate(-545.657 -41.872)" fill="#c4c4c4"/></g><g transform="translate(998.359 351.812)"><path d="M614.944,101.678l-22.9-11.386,23.1-27.453.009-1.644L590.81,90.126a.525.525,0,0,0-.112.446.538.538,0,0,0,.28.365l23.959,11.912Z" transform="translate(-590.687 -61.195)" fill="#c4c4c4"/></g><g transform="translate(998.359 380.556)"><path d="M614.91,92.341,595.666,77.356l19.272,9.583.007-1.171-23.5-11.684a.526.526,0,0,0-.555.887l24.013,18.7Z" transform="translate(-590.687 -74.03)" fill="#c4c4c4"/></g><g transform="translate(327.164 829.348)"><path d="M291.368,385.319l116.738,34.073,3.816.02-119-34.734L504.012,276.021l-51,143.6,1.113.007,51.316-144.5a.523.523,0,0,0-.148-.573.532.532,0,0,0-.587-.072L291.274,384.347a.527.527,0,0,0,.094.972Z" transform="translate(-290.991 -274.421)" fill="#c4c4c4"/></g><g transform="translate(489.19 829.349)"><path d="M364.45,419.627l51.121-143.951,138.42,67.167-170.515,76.88,2.531.013,169.44-76.4a.526.526,0,0,0,.013-.952L415.5,274.473a.541.541,0,0,0-.43-.013.526.526,0,0,0-.293.309L363.337,419.62Z" transform="translate(-363.337 -274.421)" fill="#c4c4c4"/></g><g transform="translate(488.46 617.583)"><path d="M424.812,227.071a.533.533,0,0,1-.314-.105L363.221,180.81a.525.525,0,0,1,.495-.914l97.274,35.4a.525.525,0,0,1-.031,1l-35.995,10.757A.5.5,0,0,1,424.812,227.071Zm-58.148-44.982,58.254,43.878,34.221-10.226Z" transform="translate(-363.011 -179.865)" fill="#c4c4c4"/></g><g transform="translate(488.46 576.04)"><path d="M460.807,239.308a.547.547,0,0,1-.177-.031l-97.272-35.4a.528.528,0,0,1-.347-.5.522.522,0,0,1,.365-.49l128.075-41.542a.523.523,0,0,1,.65.694l-30.8,76.941A.522.522,0,0,1,460.807,239.308Zm-95.655-35.9,95.359,34.7,30.2-75.427Z" transform="translate(-363.011 -161.316)" fill="#c4c4c4"/></g><g transform="translate(540.598 652.981)"><path d="M386.814,373.089a.435.435,0,0,1-.076-.007.525.525,0,0,1-.446-.549l9.14-165.61a.527.527,0,0,1,.374-.475L431.8,195.694a.521.521,0,0,1,.515.123.534.534,0,0,1,.146.511L387.327,372.693A.527.527,0,0,1,386.814,373.089Zm9.646-165.738-8.822,159.888,43.573-170.273Z" transform="translate(-386.292 -195.671)" fill="#c4c4c4"/></g><g transform="translate(585.733 576.041)"><path d="M659.868,251.538h-.022l-252.9-12.23a.527.527,0,0,1-.417-.242.519.519,0,0,1-.045-.479l30.8-76.939a.523.523,0,0,1,.683-.293l222.095,89.171a.525.525,0,0,1-.2,1.012ZM407.733,238.293l249.044,12.044L438.066,162.525Z" transform="translate(-406.445 -161.316)" fill="#c4c4c4"/></g><g transform="translate(590.607 375.349)"><path d="M435.073,273.447a.5.5,0,0,1-.19-.036.523.523,0,0,1-.327-.421L408.626,72.3a.524.524,0,0,1,.842-.479l138.37,108.017a.523.523,0,0,1,.011.82L435.411,273.328A.528.528,0,0,1,435.073,273.447ZM409.831,73.432l25.645,198.481,111.2-91.653Z" transform="translate(-408.621 -71.705)" fill="#c4c4c4"/></g><g transform="translate(590.605 321.267)"><path d="M547.514,210.709a.531.531,0,0,1-.32-.112l-138.37-108.02a.522.522,0,0,1-.2-.477.53.53,0,0,1,.307-.417L529.468,47.6a.523.523,0,0,1,.737.421l17.834,162.1a.526.526,0,0,1-.267.517A.533.533,0,0,1,547.514,210.709ZM410.156,102.287,546.858,209,529.239,48.857Z" transform="translate(-408.62 -47.556)" fill="#c4c4c4"/></g><g transform="translate(653.613 34.142)"><path d="M494.806,207.529a.386.386,0,0,1-.087-.009.523.523,0,0,1-.421-.394L436.768-31.755a.534.534,0,0,1,.069-.408.515.515,0,0,1,.34-.231L680.71-80.639a.529.529,0,0,1,.537.219.525.525,0,0,1,.007.58l-186,287.128A.527.527,0,0,1,494.806,207.529Zm-56.888-239L495.033,205.69,679.7-79.366Z" transform="translate(-436.754 80.648)" fill="#c4c4c4"/></g><g transform="translate(711.143 321.267)"><path d="M480.8,210.709a.563.563,0,0,1-.26-.069.528.528,0,0,1-.26-.4L462.445,48.14a.526.526,0,0,1,.912-.412l109.966,120.9a.522.522,0,0,1-.175.833l-92.132,41.2A.527.527,0,0,1,480.8,210.709ZM463.665,49.631l17.578,159.776L572.057,168.8Z" transform="translate(-462.442 -47.557)" fill="#c4c4c4"/></g><g transform="translate(711.142 321.267)"><path d="M572.933,169.505h-.016a.538.538,0,0,1-.372-.172L462.579,48.435a.525.525,0,0,1,.52-.862L649.466,95.408a.528.528,0,0,1,.233.889l-76.4,73.06A.523.523,0,0,1,572.933,169.505ZM464.537,49.029l108.425,119.2L648.288,96.19Z" transform="translate(-462.441 -47.557)" fill="#c4c4c4"/></g><g transform="translate(711.142 34.141)"><path d="M649.331,255.364a.618.618,0,0,1-.128-.016L462.837,207.513a.527.527,0,0,1-.311-.8l186-287.128a.523.523,0,0,1,.589-.217.523.523,0,0,1,.376.5l.365,334.961a.527.527,0,0,1-.2.417A.536.536,0,0,1,649.331,255.364ZM463.8,206.675l185,47.484-.361-332.506Z" transform="translate(-462.441 80.648)" fill="#c4c4c4"/></g><g transform="translate(540.598 652.982)"><path d="M386.814,373.089a.534.534,0,0,1-.381-.168.521.521,0,0,1-.125-.488l45.134-176.365a.523.523,0,0,1,.325-.363.529.529,0,0,1,.484.058L623.715,328.017a.526.526,0,0,1-.2.95l-236.6,44.113A.7.7,0,0,1,386.814,373.089Zm45.459-176.031L387.531,371.895l234.549-43.73Z" transform="translate(-386.292 -195.671)" fill="#c4c4c4"/></g><g transform="translate(540.599 785.234)"><path d="M526.772,367.8a.507.507,0,0,1-.226-.051L386.588,299.835a.526.526,0,0,1,.134-.99l236.6-44.113a.53.53,0,0,1,.553.255.524.524,0,0,1-.06.6L527.173,367.62A.522.522,0,0,1,526.772,367.8Zm-138.29-68.215L526.64,366.628l95.4-110.588Z" transform="translate(-386.292 -254.723)" fill="#c4c4c4"/></g><g transform="translate(585.732 652.982)"><path d="M598.434,328.975a.538.538,0,0,1-.3-.094L406.672,196.63a.528.528,0,0,1-.2-.6.547.547,0,0,1,.524-.356l252.9,12.23a.527.527,0,0,1,.443.766L598.9,328.689a.531.531,0,0,1-.34.271A.625.625,0,0,1,598.434,328.975ZM408.784,196.811,598.241,327.677,659.03,208.911Z" transform="translate(-406.444 -195.671)" fill="#c4c4c4"/></g><g transform="translate(680.557 785.236)"><path d="M514.849,391.057a.482.482,0,0,1-.175-.031l-65.539-23.254a.523.523,0,0,1-.222-.838l96.64-112.028a.526.526,0,0,1,.911.459l-31.1,135.284a.53.53,0,0,1-.26.343A.539.539,0,0,1,514.849,391.057Zm-64.639-24.02,64.26,22.8L544.964,257.2Z" transform="translate(-448.785 -254.724)" fill="#c4c4c4"/></g><g transform="translate(746.098 785.236)"><path d="M478.573,391.057a.527.527,0,0,1-.511-.643l31.1-135.284a.527.527,0,0,1,.363-.385.536.536,0,0,1,.515.125l125.86,121.5a.521.521,0,0,1,.132.551.529.529,0,0,1-.45.349L478.62,391.054ZM509.98,256.272,479.249,389.944l155.093-13.619Z" transform="translate(-478.05 -254.724)" fill="#c4c4c4"/></g><g transform="translate(777.199 665.212)"><path d="M492.46,322.206a.527.527,0,0,1-.466-.766l61.434-120.022a.523.523,0,0,1,.352-.273.518.518,0,0,1,.437.1l68.845,52.964a.526.526,0,0,1-.078.885L492.7,322.148A.558.558,0,0,1,492.46,322.206ZM554.075,202.46l-60.4,118,128.091-65.929Z" transform="translate(-491.936 -201.132)" fill="#c4c4c4"/></g><g transform="translate(777.198 731.455)"><path d="M618.32,407.039a.517.517,0,0,1-.363-.148L492.1,285.394a.526.526,0,0,1,.215-.882l179.973-53.779a.525.525,0,0,1,.652.658L618.826,406.67a.525.525,0,0,1-.372.352A.554.554,0,0,1,618.32,407.039ZM493.474,285.262l124.6,120.281L671.642,232.02Z" transform="translate(-491.936 -230.71)" fill="#c4c4c4"/></g><g transform="translate(777.198 718.178)"><path d="M492.46,292.89a.527.527,0,0,1-.24-.994L622.5,224.84a.519.519,0,0,1,.376-.04l49.694,13.276a.525.525,0,0,1,.014,1.01L492.612,292.868A.513.513,0,0,1,492.46,292.89ZM622.8,225.866,497.741,290.238l172.766-51.627Z" transform="translate(-491.936 -224.782)" fill="#c4c4c4"/></g><g transform="translate(0 764.839)"><path d="M145.432,333.942a.526.526,0,0,1-.264-.979l149.044-87.277a.553.553,0,0,1,.4-.054.521.521,0,0,1,.32.251l30.823,54.854a.523.523,0,0,1,.016.482.532.532,0,0,1-.381.293l-179.868,32.42A.446.446,0,0,1,145.432,333.942Zm148.849-87.077-146.028,85.51L324.48,300.61Z" transform="translate(-144.908 -245.617)" fill="#c4c4c4"/></g><g transform="translate(149.044 746.553)"><path d="M242.8,311.641l-.047,0a.521.521,0,0,1-.408-.264l-30.823-54.856a.527.527,0,0,1-.02-.477.532.532,0,0,1,.376-.3L303.9,237.461a.526.526,0,0,1,.5.853l-61.194,73.14A.522.522,0,0,1,242.8,311.641Zm-30.006-55,30.093,53.557,59.75-71.411Z" transform="translate(-211.458 -237.452)" fill="#c4c4c4"/></g><g transform="translate(440.244 338.784)"><path d="M342.006,167.763a.529.529,0,0,1-.506-.658L370.4,55.772a.525.525,0,0,1,1.017.264l-28.9,111.332A.53.53,0,0,1,342.006,167.763Z" transform="translate(-341.482 -55.378)" fill="#c4c4c4"/></g><g transform="translate(440.244 338.786)"><path d="M342.006,167.761a.527.527,0,0,1-.506-.658L370.4,55.771a.53.53,0,0,1,.251-.325.525.525,0,0,1,.41-.045L492.522,91.965a.525.525,0,0,1,.081.974L342.241,167.705A.519.519,0,0,1,342.006,167.761Zm29.278-111.2L342.806,166.252,490.947,92.587Z" transform="translate(-341.482 -55.379)" fill="#c4c4c4"/></g><g transform="translate(440.243 450.116)"><path d="M384.827,247.533a.53.53,0,0,1-.5-.374L341.5,105.767a.526.526,0,0,1,.808-.58L518.6,231.112a.525.525,0,0,1-.244.95L384.89,247.528A.593.593,0,0,1,384.827,247.533ZM342.958,106.941l42.248,139.492,131.678-15.258Z" transform="translate(-341.482 -105.089)" fill="#c4c4c4"/></g><g transform="translate(440.244 375.349)"><path d="M518.3,273.447a.511.511,0,0,1-.3-.1L341.7,147.426a.518.518,0,0,1-.219-.468.524.524,0,0,1,.289-.43L492.136,71.761a.522.522,0,0,1,.482,0,.534.534,0,0,1,.273.4l25.93,200.691a.523.523,0,0,1-.524.591ZM343.025,147.079l174.6,124.716L491.941,73.029Z" transform="translate(-341.482 -71.705)" fill="#c4c4c4"/></g><g transform="translate(391.327 591.508)"><path d="M320.164,268.3a.525.525,0,0,1-.383-.882l91.738-99.03a.52.52,0,0,1,.526-.15.525.525,0,0,1,.374.4l5.4,26.073a.525.525,0,0,1-.2.526L320.482,268.2A.531.531,0,0,1,320.164,268.3Zm91.433-98.45-87.075,94L416.717,194.6Z" transform="translate(-319.64 -168.222)" fill="#c4c4c4"/></g><g transform="translate(391.326 617.584)"><path d="M320.164,253.871a.528.528,0,0,1-.481-.318.522.522,0,0,1,.168-.627l97.133-72.957a.531.531,0,0,1,.632,0l61.277,46.156a.526.526,0,0,1-.228.938l-158.41,26.8A.422.422,0,0,1,320.164,253.871ZM417.3,181.049l-95.088,71.418L477.287,226.23Z" transform="translate(-319.64 -179.866)" fill="#c4c4c4"/></g><g transform="translate(391.327 663.737)"><path d="M469.434,367.136a.532.532,0,0,1-.354-.141L319.808,228.185a.525.525,0,0,1-.146-.535.53.53,0,0,1,.417-.367l158.41-26.8a.524.524,0,0,1,.611.546l-9.138,165.61a.524.524,0,0,1-.329.459A.515.515,0,0,1,469.434,367.136ZM321.3,228.14l147.671,137.32,9.041-163.832Z" transform="translate(-319.64 -200.473)" fill="#c4c4c4"/></g><g transform="translate(838.633 441.513)"><path d="M702.544,209.886l-181.8,114.431,58.7-221.824,123.381,52.122.007-1.138L579.3,101.288a.53.53,0,0,0-.437.013.521.521,0,0,0-.276.338l-59.2,223.7a.528.528,0,0,0,.2.558.529.529,0,0,0,.591.02L702.538,211.131Z" transform="translate(-519.367 -101.248)" fill="#c4c4c4"/></g><g transform="translate(838.632 550.151)"><path d="M702.057,245.292,522.095,264.577,702.538,151l.007-1.247L519.613,264.9a.525.525,0,0,0,.278.97.535.535,0,0,0,.058,0l182.1-19.516Z" transform="translate(-519.367 -149.756)" fill="#c4c4c4"/></g><g transform="translate(897.83 441.514)"><path d="M670.068,153.477l-120.725-51,120.949,7.131,0-1.053L546.358,101.25a.5.5,0,0,0-.544.4.528.528,0,0,0,.307.6l123.941,52.357Z" transform="translate(-545.8 -101.248)" fill="#c4c4c4"/></g><g transform="translate(179.866 746.128)"><path d="M225.743,311.876a.515.515,0,0,1-.421-.215.525.525,0,0,1,.02-.647l61.194-73.14a.533.533,0,0,1,.4-.186l120.953-.426h0a.525.525,0,0,1,.195,1.012l-182.15,73.564A.478.478,0,0,1,225.743,311.876Zm61.443-73.138L227.5,310.078l177.671-71.754Z" transform="translate(-225.22 -237.262)" fill="#c4c4c4"/></g><g transform="translate(179.866 746.129)"><path d="M373.041,431.4a.523.523,0,0,1-.329-.116l-147.3-119.524a.526.526,0,0,1,.134-.9L407.7,237.3a.532.532,0,0,1,.529.081.526.526,0,0,1,.186.5L373.56,430.967a.518.518,0,0,1-.52.432ZM226.769,311.5l145.913,118.4,34.525-191.274Z" transform="translate(-225.221 -237.263)" fill="#c4c4c4"/></g><g transform="translate(241.06 690.539)"><path d="M253.068,269.506a.526.526,0,0,1-.181-1.019l150.267-56.014a.526.526,0,0,1,.647.739L374.489,268.8a.522.522,0,0,1-.464.28l-120.953.426ZM402.228,213.94l-146.216,54.5,117.695-.412Z" transform="translate(-252.544 -212.441)" fill="#c4c4c4"/></g><g transform="translate(327.163 746.129)"><path d="M291.514,431.4a.5.5,0,0,1-.309-.1.519.519,0,0,1-.206-.515l34.852-193.088a.518.518,0,0,1,.275-.372.527.527,0,0,1,.464-.011l178.584,83.218a.527.527,0,0,1,.018.945L291.758,431.341A.5.5,0,0,1,291.514,431.4Zm35.251-192.848L292.222,429.919,503.757,321.031Z" transform="translate(-290.99 -237.262)" fill="#c4c4c4"/></g><g transform="translate(362.015 690.538)"><path d="M485.658,352.3a.591.591,0,0,1-.219-.049L306.856,269.032a.517.517,0,0,1-.275-.307.524.524,0,0,1,.031-.414l29.312-55.589a.528.528,0,0,1,.824-.141L486.018,351.39a.526.526,0,0,1-.361.912ZM307.8,268.313l175.064,81.579L336.533,213.819Z" transform="translate(-306.552 -212.44)" fill="#c4c4c4"/></g><g transform="translate(957.171 695.003)"><path d="M635.889,274.341l-61.833-23.032,62.133-35.659.007-1.216-63.633,36.521a.525.525,0,0,0,.078.95l63.244,23.556Z" transform="translate(-572.296 -214.434)" fill="#c4c4c4"/></g><g transform="translate(469.149 257.618)"><path d="M354.911,101.355a.525.525,0,0,1-.289-.963L475.988,19.225a.526.526,0,0,1,.585.873L355.207,101.265A.519.519,0,0,1,354.911,101.355Z" transform="translate(-354.388 -19.136)" fill="#c4c4c4"/></g><g transform="translate(469.149 257.619)"><path d="M476.368,137.918a.488.488,0,0,1-.15-.022L354.764,101.332a.525.525,0,0,1-.141-.941L475.988,19.225a.525.525,0,0,1,.818.437l.092,117.73a.525.525,0,0,1-.529.526ZM356.132,100.647l119.712,36.039-.09-116.042Z" transform="translate(-354.388 -19.137)" fill="#c4c4c4"/></g><g transform="translate(590.515 257.618)"><path d="M409.194,137.918a.515.515,0,0,1-.282-.085.524.524,0,0,1-.242-.439l-.09-117.733a.524.524,0,0,1,.77-.464L529.979,82.847a.524.524,0,0,1-.031.943L409.411,137.874A.524.524,0,0,1,409.194,137.918Zm.437-117.383.09,116.046L528.534,83.273Z" transform="translate(-408.58 -19.137)" fill="#c4c4c4"/></g><g transform="translate(590.514 82.384)"><path d="M529.731,180.827a.532.532,0,0,1-.244-.06L408.861,117.118a.527.527,0,0,1-.251-.643l63.1-175.234a.51.51,0,0,1,.524-.345.525.525,0,0,1,.484.4l57.528,238.881a.526.526,0,0,1-.188.54A.541.541,0,0,1,529.731,180.827ZM409.754,116.4l119.2,62.892L472.1-56.752Z" transform="translate(-408.579 59.108)" fill="#c4c4c4"/></g><g transform="translate(903.06 731.455)"><path d="M665.467,327.025,549.6,405.243l53.376-172.887,62.563,80.5.009-1.7-62.361-80.24a.526.526,0,0,0-.918.166L548.158,406.358a.529.529,0,0,0,.19.578.523.523,0,0,0,.309.1.539.539,0,0,0,.3-.09L665.46,328.3Z" transform="translate(-548.135 -230.71)" fill="#c4c4c4"/></g><g transform="translate(903.059 827.77)"><path d="M664.919,381.543,549.934,352.979l115.527-77.991.007-1.272-117.1,79.053a.525.525,0,0,0,.168.945l116.378,28.911Z" transform="translate(-548.134 -273.716)" fill="#c4c4c4"/></g><g transform="translate(957.172 731.455)"><path d="M635.6,311.154l-61.226-78.78,61.51,22.911,0-1.12L573,230.744a.524.524,0,0,0-.6.813l63.183,81.3Z" transform="translate(-572.297 -230.71)" fill="#c4c4c4"/></g></g><g transform="translate(929.456)"><path d="M564.29-96.738a5.48,5.48,0,0,0-5.507,5.451,5.48,5.48,0,0,0,5.451,5.509,5.481,5.481,0,0,0,5.509-5.453A5.48,5.48,0,0,0,564.29-96.738Z" transform="translate(-556.68 98.841)" fill="#c4c4c4"/><path d="M565.454-95.574a5.48,5.48,0,0,1,5.453,5.507,5.481,5.481,0,0,1-5.509,5.453,5.48,5.48,0,0,1-5.451-5.509,5.48,5.48,0,0,1,5.507-5.451m.011-2.1a7.593,7.593,0,0,0-7.621,7.543,7.59,7.59,0,0,0,7.543,7.621,7.589,7.589,0,0,0,7.621-7.543,7.59,7.59,0,0,0-7.543-7.621Z" transform="translate(-557.844 97.677)" fill="#231f20"/></g><g transform="translate(71.351 894.754)"><path d="M179.029,302.78a3.382,3.382,0,1,0,3.364,3.4A3.382,3.382,0,0,0,179.029,302.78Z" transform="translate(-173.526 -300.677)" fill="#c4c4c4"/><path d="M180.193,303.944a3.382,3.382,0,1,1-3.4,3.364,3.383,3.383,0,0,1,3.4-3.364m.009-2.1a5.484,5.484,0,1,0,5.456,5.512,5.49,5.49,0,0,0-5.456-5.512Z" transform="translate(-174.69 -301.841)" fill="#231f20"/></g><g transform="translate(133.432 933.891)"><path d="M208.056,320.254a4.682,4.682,0,1,0,4.656,4.705A4.683,4.683,0,0,0,208.056,320.254Z" transform="translate(-201.247 -318.153)" fill="#c4c4c4"/><path d="M209.218,321.417a4.682,4.682,0,1,1-4.708,4.658,4.682,4.682,0,0,1,4.708-4.658m.009-2.1a6.784,6.784,0,1,0,6.75,6.817,6.789,6.789,0,0,0-6.75-6.817Z" transform="translate(-202.41 -319.316)" fill="#231f20"/></g><g transform="translate(997.374 378.913)"><path d="M593.191,72.451a4.062,4.062,0,1,0,4.04,4.083A4.062,4.062,0,0,0,593.191,72.451Z" transform="translate(-587.007 -70.348)" fill="#c4c4c4"/><path d="M594.354,73.615a4.062,4.062,0,1,1-4.083,4.04,4.062,4.062,0,0,1,4.083-4.04m.011-2.1a6.163,6.163,0,1,0,6.132,6.195,6.17,6.17,0,0,0-6.132-6.195Z" transform="translate(-588.17 -71.512)" fill="#231f20"/></g><g transform="translate(725.09 478.825)"><circle cx="6.962" cy="6.962" r="6.962" transform="translate(2.101 2.102)" fill="#c4c4c4"/><path d="M475.692,118.227a6.962,6.962,0,1,1-7,6.925,6.961,6.961,0,0,1,7-6.925m.011-2.1a9.064,9.064,0,1,0,9.017,9.111,9.073,9.073,0,0,0-9.017-9.111Z" transform="translate(-466.592 -116.124)" fill="#231f20"/></g><g transform="translate(821.204 441.601)"><path d="M516.409,103.439a2.981,2.981,0,1,0-3,2.965A2.978,2.978,0,0,0,516.409,103.439Z" transform="translate(-508.344 -98.339)" fill="#c4c4c4"/><path d="M514.608,101.606a2.981,2.981,0,1,1-3,2.965,2.978,2.978,0,0,1,3-2.965m.009-2.1a5.084,5.084,0,1,0,5.059,5.108,5.09,5.09,0,0,0-5.059-5.108Z" transform="translate(-509.508 -99.503)" fill="#231f20"/></g><g transform="translate(893.724 364.66)"><path d="M549.652,79.807a6.86,6.86,0,1,0-6.824-6.9A6.862,6.862,0,0,0,549.652,79.807Z" transform="translate(-540.725 -63.984)" fill="#c4c4c4"/><path d="M550.888,67.251a6.86,6.86,0,1,1-6.9,6.824,6.862,6.862,0,0,1,6.9-6.824m.009-2.1a8.962,8.962,0,1,0,8.916,9.008,8.975,8.975,0,0,0-8.916-9.008Z" transform="translate(-541.889 -65.148)" fill="#231f20"/></g><g transform="translate(895.936 32.275)"><path d="M552.384-78.02a4.282,4.282,0,0,0-4.262-4.307,4.284,4.284,0,0,0-4.307,4.262,4.285,4.285,0,0,0,4.264,4.307A4.284,4.284,0,0,0,552.384-78.02Z" transform="translate(-541.714 84.43)" fill="#c4c4c4"/><path d="M549.284-81.163a4.285,4.285,0,0,1,4.264,4.307,4.287,4.287,0,0,1-4.307,4.262,4.285,4.285,0,0,1-4.264-4.307,4.284,4.284,0,0,1,4.307-4.262m.011-2.1a6.394,6.394,0,0,0-6.419,6.354,6.4,6.4,0,0,0,6.354,6.421,6.4,6.4,0,0,0,6.419-6.356,6.394,6.394,0,0,0-6.354-6.419Z" transform="translate(-542.877 83.266)" fill="#231f20"/></g><g transform="translate(582.61 649.204)"><path d="M410.14,193.138a6.2,6.2,0,1,0,6.168,6.231A6.2,6.2,0,0,0,410.14,193.138Z" transform="translate(-401.809 -191.037)" fill="#c4c4c4"/><path d="M411.3,194.3a6.2,6.2,0,1,1-6.228,6.166A6.2,6.2,0,0,1,411.3,194.3m.011-2.1a8.3,8.3,0,1,0,8.257,8.34,8.309,8.309,0,0,0-8.257-8.34Z" transform="translate(-402.973 -192.2)" fill="#231f20"/></g><g transform="translate(678.307 894.357)"><path d="M451.992,302.6a5.325,5.325,0,1,0,5.3,5.353A5.324,5.324,0,0,0,451.992,302.6Z" transform="translate(-444.539 -300.501)" fill="#c4c4c4"/><path d="M453.156,303.765a5.325,5.325,0,1,1-5.35,5.3,5.325,5.325,0,0,1,5.35-5.3m.011-2.1a7.425,7.425,0,1,0,7.388,7.462,7.435,7.435,0,0,0-7.388-7.462Z" transform="translate(-445.703 -301.664)" fill="#231f20"/></g><g transform="translate(742.27 916.032)"><path d="M482.141,312.281a6.9,6.9,0,1,0,6.867,6.938A6.9,6.9,0,0,0,482.141,312.281Z" transform="translate(-473.1 -310.178)" fill="#c4c4c4"/><path d="M483.3,313.445a6.9,6.9,0,1,1-6.941,6.869,6.9,6.9,0,0,1,6.941-6.869m.009-2.1a9.007,9.007,0,1,0,8.961,9.052,9.016,9.016,0,0,0-8.961-9.052Z" transform="translate(-474.263 -311.342)" fill="#231f20"/></g><g transform="translate(776.41 783.789)"><path d="M494.331,253.232a3.864,3.864,0,1,0,3.843,3.883A3.866,3.866,0,0,0,494.331,253.232Z" transform="translate(-488.344 -251.131)" fill="#c4c4c4"/><path d="M495.493,254.395a3.864,3.864,0,1,1-3.886,3.845,3.864,3.864,0,0,1,3.886-3.845m.009-2.1a5.966,5.966,0,1,0,5.937,6,5.971,5.971,0,0,0-5.937-6Z" transform="translate(-489.507 -252.294)" fill="#231f20"/></g><g transform="translate(903.072 713.115)"><path d="M554.52,221.676a7.48,7.48,0,1,0,7.442,7.518A7.481,7.481,0,0,0,554.52,221.676Z" transform="translate(-544.899 -219.573)" fill="#c4c4c4"/><path d="M555.684,222.84a7.48,7.48,0,1,1-7.518,7.442,7.479,7.479,0,0,1,7.518-7.442m.011-2.1a9.583,9.583,0,1,0,9.534,9.632,9.594,9.594,0,0,0-9.534-9.632Z" transform="translate(-546.063 -220.737)" fill="#231f20"/></g><g transform="translate(0 851.456)"><path d="M146.862,283.447a3.076,3.076,0,1,0,3.062,3.093A3.077,3.077,0,0,0,146.862,283.447Z" transform="translate(-141.668 -281.344)" fill="#c4c4c4"/><path d="M148.025,284.611a3.076,3.076,0,1,1-3.093,3.062,3.077,3.077,0,0,1,3.093-3.062m.011-2.1a5.179,5.179,0,1,0,5.153,5.207,5.185,5.185,0,0,0-5.153-5.207Z" transform="translate(-142.831 -282.508)" fill="#231f20"/></g><g transform="translate(147.143 762.28)"><path d="M214.472,243.629a4.975,4.975,0,1,0,4.952,5A4.974,4.974,0,0,0,214.472,243.629Z" transform="translate(-207.368 -241.526)" fill="#c4c4c4"/><path d="M215.636,244.793a4.975,4.975,0,1,1-5,4.949,4.977,4.977,0,0,1,5-4.949m.011-2.1a7.078,7.078,0,1,0,7.041,7.115,7.087,7.087,0,0,0-7.041-7.115Z" transform="translate(-208.532 -242.69)" fill="#231f20"/></g><g transform="translate(440.316 449.531)"><path d="M343.4,103.983A3,3,0,1,0,346.384,107,3.006,3.006,0,0,0,343.4,103.983Z" transform="translate(-338.274 -101.88)" fill="#c4c4c4"/><path d="M344.559,105.147a3,3,0,1,1-3.021,2.99,3,3,0,0,1,3.021-2.99m.009-2.1a5.106,5.106,0,1,0,5.082,5.133,5.113,5.113,0,0,0-5.082-5.133Z" transform="translate(-339.437 -103.044)" fill="#231f20"/></g><g transform="translate(612.763 571.611)"><path d="M424.26,158.493a6.848,6.848,0,1,0,6.813,6.882A6.848,6.848,0,0,0,424.26,158.493Z" transform="translate(-415.274 -156.39)" fill="#c4c4c4"/><path d="M425.422,159.657a6.848,6.848,0,1,1-6.882,6.813,6.845,6.845,0,0,1,6.882-6.813m.011-2.1a8.951,8.951,0,1,0,8.9,9,8.961,8.961,0,0,0-8.9-9Z" transform="translate(-416.437 -157.554)" fill="#231f20"/></g><g transform="translate(482.724 590.511)"><path d="M362.711,173.765a3.417,3.417,0,1,0-3.4-3.436A3.418,3.418,0,0,0,362.711,173.765Z" transform="translate(-357.21 -164.829)" fill="#c4c4c4"/><path d="M363.907,168.1a3.417,3.417,0,1,1-3.433,3.4,3.415,3.415,0,0,1,3.433-3.4m.011-2.1a5.518,5.518,0,1,0,5.491,5.547,5.524,5.524,0,0,0-5.491-5.547Z" transform="translate(-358.373 -165.993)" fill="#231f20"/></g><g transform="translate(487.674 616.141)"><path d="M365.4,178.375a3.862,3.862,0,1,0,3.841,3.881A3.863,3.863,0,0,0,365.4,178.375Z" transform="translate(-359.419 -176.274)" fill="#c4c4c4"/><path d="M366.567,179.538a3.862,3.862,0,1,1-3.881,3.843,3.862,3.862,0,0,1,3.881-3.843m.011-2.1a5.963,5.963,0,1,0,5.933,5.993,5.97,5.97,0,0,0-5.933-5.993Z" transform="translate(-360.583 -177.437)" fill="#231f20"/></g><g transform="translate(549.791 663.134)"><path d="M392.3,199.359A3.022,3.022,0,1,0,395.3,202.4,3.023,3.023,0,0,0,392.3,199.359Z" transform="translate(-387.156 -197.256)" fill="#c4c4c4"/><path d="M393.459,200.523a3.022,3.022,0,1,1-3.039,3.006,3.022,3.022,0,0,1,3.039-3.006m.011-2.1a5.124,5.124,0,1,0,5.1,5.151,5.131,5.131,0,0,0-5.1-5.151Z" transform="translate(-388.319 -198.42)" fill="#231f20"/></g><g transform="translate(836.453 662.377)"><path d="M522.538,199.02a5.255,5.255,0,1,0,5.227,5.283A5.257,5.257,0,0,0,522.538,199.02Z" transform="translate(-515.154 -196.919)" fill="#c4c4c4"/><path d="M523.7,200.183a5.255,5.255,0,1,1-5.283,5.229,5.255,5.255,0,0,1,5.283-5.229m.011-2.1a7.357,7.357,0,1,0,7.319,7.393,7.362,7.362,0,0,0-7.319-7.393Z" transform="translate(-516.317 -198.082)" fill="#231f20"/></g><g transform="translate(894.866 437.892)"><path d="M549.408,98.785a6.041,6.041,0,1,0,6.011,6.072A6.044,6.044,0,0,0,549.408,98.785Z" transform="translate(-541.236 -96.684)" fill="#c4c4c4"/><path d="M550.571,99.948a6.041,6.041,0,1,1-6.071,6.011,6.041,6.041,0,0,1,6.071-6.011m.011-2.1a8.142,8.142,0,1,0,8.1,8.183,8.149,8.149,0,0,0-8.1-8.183Z" transform="translate(-542.399 -97.847)" fill="#231f20"/></g><g transform="translate(176.392 815.56)"><path d="M229.114,267.419A6.551,6.551,0,1,0,235.632,274,6.552,6.552,0,0,0,229.114,267.419Z" transform="translate(-220.429 -265.316)" fill="#c4c4c4"/><path d="M230.277,268.583a6.551,6.551,0,1,1-6.584,6.517,6.551,6.551,0,0,1,6.584-6.517m.011-2.1a8.654,8.654,0,1,0,8.609,8.7,8.662,8.662,0,0,0-8.609-8.7Z" transform="translate(-221.592 -266.48)" fill="#231f20"/></g><g transform="translate(240.363 745.201)"><path d="M258.64,239.794a3.773,3.773,0,1,0-3.792,3.754A3.775,3.775,0,0,0,258.64,239.794Z" transform="translate(-248.992 -233.901)" fill="#c4c4c4"/><path d="M256.051,237.165a3.773,3.773,0,1,1-3.792,3.754,3.775,3.775,0,0,1,3.792-3.754m.011-2.1a5.873,5.873,0,1,0,5.843,5.9,5.881,5.881,0,0,0-5.843-5.9Z" transform="translate(-250.156 -235.064)" fill="#231f20"/></g><g transform="translate(324.312 935.709)"><path d="M294.535,321.066a5.927,5.927,0,1,0,5.9,5.957A5.93,5.93,0,0,0,294.535,321.066Z" transform="translate(-286.477 -318.965)" fill="#c4c4c4"/><path d="M295.7,322.229a5.927,5.927,0,1,1-5.957,5.9,5.927,5.927,0,0,1,5.957-5.9m.011-2.1A8.029,8.029,0,1,0,303.7,328.2a8.037,8.037,0,0,0-7.989-8.069Z" transform="translate(-287.64 -320.128)" fill="#231f20"/></g><g transform="translate(358.893 742.35)"><path d="M310.25,234.729a6.2,6.2,0,1,0,6.166,6.231A6.2,6.2,0,0,0,310.25,234.729Z" transform="translate(-301.918 -232.628)" fill="#c4c4c4"/><path d="M311.412,235.892a6.2,6.2,0,1,1-6.23,6.168,6.2,6.2,0,0,1,6.23-6.168m.011-2.1a8.3,8.3,0,1,0,8.255,8.342,8.307,8.307,0,0,0-8.255-8.342Z" transform="translate(-303.081 -233.791)" fill="#231f20"/></g><g transform="translate(538.268 826.359)"><path d="M389.546,272.241a5.406,5.406,0,1,0,5.377,5.433A5.4,5.4,0,0,0,389.546,272.241Z" transform="translate(-382.01 -270.138)" fill="#c4c4c4"/><path d="M390.71,273.4a5.406,5.406,0,1,1-5.435,5.38,5.405,5.405,0,0,1,5.435-5.38m.011-2.1a7.508,7.508,0,1,0,7.469,7.547,7.518,7.518,0,0,0-7.469-7.547Z" transform="translate(-383.174 -271.302)" fill="#231f20"/></g><g transform="translate(390.433 688.99)"><path d="M322.092,210.9a3.969,3.969,0,1,0,3.948,3.989A3.969,3.969,0,0,0,322.092,210.9Z" transform="translate(-316 -208.802)" fill="#c4c4c4"/><path d="M323.256,212.068a3.967,3.967,0,1,1-3.989,3.946,3.967,3.967,0,0,1,3.989-3.946m.011-2.1a6.07,6.07,0,1,0,6.038,6.1,6.078,6.078,0,0,0-6.038-6.1Z" transform="translate(-317.164 -209.965)" fill="#231f20"/></g><g transform="translate(467.477 336.457)"><path d="M357.274,53.494A4.747,4.747,0,1,0,362,58.264,4.746,4.746,0,0,0,357.274,53.494Z" transform="translate(-350.401 -51.391)" fill="#c4c4c4"/><path d="M358.438,54.658a4.747,4.747,0,1,1-4.77,4.723,4.747,4.747,0,0,1,4.77-4.723m.011-2.1a6.849,6.849,0,1,0,6.813,6.884,6.86,6.86,0,0,0-6.813-6.884Z" transform="translate(-351.565 -52.555)" fill="#231f20"/></g><g transform="translate(590.155 374.243)"><path d="M410.824,70.365a3.526,3.526,0,1,0,3.507,3.545A3.525,3.525,0,0,0,410.824,70.365Z" transform="translate(-405.178 -68.264)" fill="#c4c4c4"/><path d="M411.988,71.528a3.526,3.526,0,1,1-3.543,3.509,3.528,3.528,0,0,1,3.543-3.509m.011-2.1a5.628,5.628,0,1,0,5.6,5.655,5.634,5.634,0,0,0-5.6-5.655Z" transform="translate(-406.342 -69.427)" fill="#231f20"/></g><g transform="translate(600.712 63.317)"><path d="M417.625-68.467A5.6,5.6,0,0,0,412-62.893a5.6,5.6,0,0,0,5.574,5.633,5.6,5.6,0,0,0,5.63-5.574A5.6,5.6,0,0,0,417.625-68.467Z" transform="translate(-409.892 70.568)" fill="#c4c4c4"/><path d="M418.789-67.3a5.6,5.6,0,0,1,5.574,5.633,5.6,5.6,0,0,1-5.63,5.574,5.6,5.6,0,0,1-5.574-5.633,5.6,5.6,0,0,1,5.63-5.574m.011-2.1a7.714,7.714,0,0,0-7.745,7.666,7.714,7.714,0,0,0,7.666,7.744,7.716,7.716,0,0,0,7.745-7.666A7.714,7.714,0,0,0,418.8-69.4Z" transform="translate(-411.056 69.405)" fill="#231f20"/></g><g transform="translate(586 252.448)"><path d="M412.976,31.161a7.589,7.589,0,1,0-7.55-7.628A7.587,7.587,0,0,0,412.976,31.161Z" transform="translate(-403.323 -13.88)" fill="#c4c4c4"/><path d="M414.218,17.147a7.589,7.589,0,1,1-7.628,7.55,7.587,7.587,0,0,1,7.628-7.55m.011-2.1a9.692,9.692,0,1,0,9.641,9.74,9.7,9.7,0,0,0-9.641-9.74Z" transform="translate(-404.487 -15.044)" fill="#231f20"/></g><g transform="translate(710.344 319.813)"><path d="M464.841,46.062a3.873,3.873,0,1,0,3.852,3.892A3.874,3.874,0,0,0,464.841,46.062Z" transform="translate(-458.845 -43.959)" fill="#c4c4c4"/><path d="M466,47.226a3.873,3.873,0,1,1-3.895,3.852A3.871,3.871,0,0,1,466,47.226m.009-2.1a5.975,5.975,0,1,0,5.946,6.007,5.979,5.979,0,0,0-5.946-6.007Z" transform="translate(-460.008 -45.123)" fill="#231f20"/></g><g transform="translate(652.382 80.5)"><path d="M439.393-60.795a4.305,4.305,0,0,0-4.327,4.284,4.305,4.305,0,0,0,4.284,4.329,4.3,4.3,0,0,0,4.327-4.284A4.307,4.307,0,0,0,439.393-60.795Z" transform="translate(-432.963 62.896)" fill="#c4c4c4"/><path d="M440.557-59.632a4.307,4.307,0,0,1,4.284,4.329,4.3,4.3,0,0,1-4.327,4.284,4.305,4.305,0,0,1-4.284-4.329,4.305,4.305,0,0,1,4.327-4.284m.011-2.1a6.415,6.415,0,0,0-6.441,6.376,6.417,6.417,0,0,0,6.376,6.441,6.415,6.415,0,0,0,6.441-6.376,6.415,6.415,0,0,0-6.376-6.441Z" transform="translate(-434.127 61.733)" fill="#231f20"/></g><g transform="translate(902.111 905.128)"><path d="M550.618,307.412a4.023,4.023,0,1,0,4,4.043A4.023,4.023,0,0,0,550.618,307.412Z" transform="translate(-544.47 -305.309)" fill="#c4c4c4"/><path d="M551.782,308.576a4.023,4.023,0,1,1-4.045,4,4.024,4.024,0,0,1,4.045-4m.009-2.1a6.125,6.125,0,1,0,6.1,6.157,6.133,6.133,0,0,0-6.1-6.157Z" transform="translate(-545.634 -306.473)" fill="#231f20"/></g><g transform="translate(955.24 728.866)"><circle cx="5.008" cy="5.008" r="5.008" transform="translate(2.102 2.102)" fill="#c4c4c4"/><path d="M576.492,229.873a5.008,5.008,0,1,1-5.035,4.981,5.007,5.007,0,0,1,5.035-4.981m.011-2.1a7.11,7.11,0,1,0,7.073,7.146,7.118,7.118,0,0,0-7.073-7.146Z" transform="translate(-569.357 -227.77)" fill="#231f20"/></g></g></g></g></svg>