<svg xmlns="http://www.w3.org/2000/svg" width="293.284" height="565.834" viewBox="0 0 293.284 565.834"><g transform="translate(-286.428 -143.411)"><g transform="translate(147.227 112.942)"><g transform="translate(148.773 42.058)"><rect width="270.107" height="542.656" rx="26.412" transform="translate(2.016)" fill="#b7b9b8"/><rect width="267.196" height="534.365" rx="25.127" transform="translate(2.835)" fill="#909090"/><rect width="258.062" height="524.36" rx="24.462" transform="translate(6.776 5.384)" fill="#2a2a2b"/><path d="M271.033,68.27H239.458a1.852,1.852,0,0,1-1.853-1.851h0a1.853,1.853,0,0,1,1.853-1.853h31.575a1.853,1.853,0,0,1,1.853,1.853h0A1.852,1.852,0,0,1,271.033,68.27Z" transform="translate(-119.122 -34.545)" fill="#757575"/><circle cx="22.816" cy="22.816" r="22.816" transform="translate(103.54 498.782) rotate(-45)" fill="#8c8c8c"/><circle cx="19.272" cy="19.272" r="19.272" transform="translate(108.552 498.782) rotate(-45)" fill="#2a2a2b"/><circle cx="3.851" cy="3.851" r="3.851" transform="translate(132.788 13.969)" fill="#757575"/><path d="M220.622,66.919a3.851,3.851,0,1,1-3.851-3.852A3.851,3.851,0,0,1,220.622,66.919Z" transform="translate(-127.362 -35.045)" fill="#757575"/><path d="M1.138,0h1.7a0,0,0,0,1,0,0V20.933a0,0,0,0,1,0,0h-1.7A1.138,1.138,0,0,1,0,19.795V1.138A1.138,1.138,0,0,1,1.138,0Z" transform="translate(0 53.13)" fill="#5d5e62"/><path d="M1.251,0H2.835a0,0,0,0,1,0,0V30.811a0,0,0,0,1,0,0H1.251A1.251,1.251,0,0,1,0,29.56V1.251A1.251,1.251,0,0,1,1.251,0Z" transform="translate(0 102.993)" fill="#5d5e62"/><path d="M1.251,0H2.835a0,0,0,0,1,0,0V30.811a0,0,0,0,1,0,0H1.251A1.251,1.251,0,0,1,0,29.56V1.251A1.251,1.251,0,0,1,1.251,0Z" transform="translate(0 155.678)" fill="#5d5e62"/></g><g transform="translate(164.473 87.554)"><rect width="238.631" height="423.628" fill="#606f7b"/><rect width="238.631" height="25.268" fill="#606f7b"/><rect width="238.631" height="27.4" transform="translate(0 396.229)" fill="#606f7b"/><path d="M173.459,379.632" transform="translate(-156.233 25.126)" fill="#606f7b"/><g transform="translate(3.622 3.14)"><rect width="1.905" height="3.13" rx="0.579" transform="translate(0 3.368)" fill="#fff"/><rect width="1.905" height="3.991" rx="0.418" transform="translate(2.96 2.508)" fill="#fff"/><rect width="1.905" height="5.179" rx="0.466" transform="translate(5.818 1.32)" fill="#fff"/><rect width="1.905" height="6.499" rx="0.522" transform="translate(8.744)" fill="#fff"/></g><g transform="translate(216.579 2.947)"><rect width="14.744" height="6.896" rx="1.146" stroke-width="0.408" stroke="#949494" stroke-linecap="round" stroke-linejoin="round" fill="#606f7b"/><rect width="12.657" height="4.718" rx="0.739" transform="translate(1.043 1.089)" fill="#fff"/><path d="M334.657,80.079v2.63a2.026,2.026,0,0,0,.862-1.451A1.341,1.341,0,0,0,334.657,80.079Z" transform="translate(-319.005 -77.81)" fill="#606f7b"/></g><g transform="translate(184.223 3.514)"><path d="M298.664,80.062l1.327-1.259a2.183,2.183,0,0,0-1.055.239C298.664,79.279,298.664,80.062,298.664,80.062Z" transform="translate(-298.664 -78.803)" fill="#606f7b"/><path d="M303.528,80.062,302.2,78.8a2.183,2.183,0,0,1,1.055.239C303.528,79.279,303.528,80.062,303.528,80.062Z" transform="translate(-297.483 -78.803)" fill="#606f7b"/><path d="M304.086,81.764a2.552,2.552,0,1,1-2.552-2.553A2.552,2.552,0,0,1,304.086,81.764Z" transform="translate(-298.558 -78.667)" fill="#606f7b"/><rect width="0.635" height="2.166" rx="0.122" transform="translate(2.847 1.259)" fill="#606f7b"/><rect width="1.619" height="0.627" rx="0.146" transform="translate(1.863 2.798)" fill="#606f7b"/></g><g transform="translate(0.272 20.915)"><line x2="238.087" fill="none" stroke="#b8c2cc" stroke-miterlimit="10" stroke-width="0.834"/><line x2="238.087" transform="translate(0 371.119)" fill="none" stroke="#b8c2cc" stroke-miterlimit="10" stroke-width="0.834"/></g><text transform="translate(104.874 8.693)" fill="#fff" font-size="6" font-family="Helvetica" letter-spacing="0.075em"><tspan x="0" y="0">3:11 PM</tspan></text><text transform="translate(195.259 8.693)" fill="#606f7b" font-size="6" font-family="Helvetica" letter-spacing="0.005em"><tspan x="0" y="0">100%</tspan></text></g></g><g transform="translate(2)"><rect width="153.598" height="8.117" rx="4.058" transform="translate(353 364.713)" fill="#b8c2cc"/><rect width="102.042" height="8.117" rx="4.058" transform="translate(378.511 384.425)" fill="#b8c2cc"/><rect width="142.002" height="8.117" rx="4.058" transform="translate(358.798 404.138)" fill="#b8c2cc"/><rect width="142.002" height="8.117" rx="4.058" transform="translate(358.798 345)" fill="#b8c2cc"/><rect width="121.13" height="8.117" rx="4.058" transform="translate(369.234 423.851)" fill="#b8c2cc"/></g><text transform="translate(387 299)" fill="#fcd9b6" font-size="20" font-family="HelveticaNeue, Helvetica Neue"><tspan x="0" y="19">MSACCO</tspan></text></g></svg>