<svg xmlns="http://www.w3.org/2000/svg" xmlns:xlink="http://www.w3.org/1999/xlink" width="423" height="318" viewBox="0 0 423 318"><defs><clipPath id="a"><rect width="239" height="196" fill="none"/></clipPath></defs><g transform="translate(-758 -293)"><rect width="423" height="318" rx="10" transform="translate(758 293)" fill="#606f7b"/><path d="M14,0H118a14,14,0,0,1,14,14V318a0,0,0,0,1,0,0H0a0,0,0,0,1,0,0V14A14,14,0,0,1,14,0Z" transform="translate(758 293)" fill="#3d4852" opacity="0.535"/><path d="M10,0H413a10,10,0,0,1,10,10V23a0,0,0,0,1,0,0H0a0,0,0,0,1,0,0V10A10,10,0,0,1,10,0Z" transform="translate(758 293)" fill="#fcd9b6"/><rect width="89" height="7" rx="3.5" transform="translate(780 342)" fill="#b8c2cc"/><g transform="translate(915 342)" opacity="0.248" clip-path="url(#a)"><g transform="translate(-915 -364)"><rect width="239" height="16" rx="5" transform="translate(915 364)" fill="#dae1e7"/></g><g transform="translate(-915 -328)"><rect width="239" height="16" rx="5" transform="translate(915 364)" fill="#dae1e7"/></g><g transform="translate(-915 -292)"><rect width="239" height="16" rx="5" transform="translate(915 364)" fill="#dae1e7"/></g><g transform="translate(-915 -256)"><rect width="239" height="16" rx="5" transform="translate(915 364)" fill="#dae1e7"/></g><g transform="translate(-915 -220)"><rect width="239" height="16" rx="5" transform="translate(915 364)" fill="#dae1e7"/></g><g transform="translate(-915 -184)"><rect width="239" height="16" rx="5" transform="translate(915 364)" fill="#dae1e7"/></g></g><rect width="89" height="7" rx="3.5" transform="translate(780 412)" fill="#b8c2cc"/><rect width="66" height="7" rx="3.5" transform="translate(780 482)" fill="#b8c2cc"/><rect width="73" height="7" rx="3.5" transform="translate(780 359)" fill="#b8c2cc"/><rect width="85" height="7" rx="3.5" transform="translate(780 429)" fill="#b8c2cc"/><rect width="73" height="7" rx="3.5" transform="translate(780 499)" fill="#b8c2cc"/><rect width="79" height="7" rx="3.5" transform="translate(780 376)" fill="#b8c2cc"/><rect width="79" height="7" rx="3.5" transform="translate(780 446)" fill="#b8c2cc"/><rect width="79" height="7" rx="3.5" transform="translate(780 516)" fill="#b8c2cc"/><circle cx="4.389" cy="4.389" r="4.389" transform="translate(777 300)" fill="#606f7b"/><circle cx="4.389" cy="4.389" r="4.389" transform="translate(792.361 300)" fill="#f5f6fa"/><circle cx="4.389" cy="4.389" r="4.389" transform="translate(807.722 300)" fill="#fff"/></g></svg>