<svg xmlns="http://www.w3.org/2000/svg" xmlns:xlink="http://www.w3.org/1999/xlink" width="364.341" height="51.256" viewBox="0 0 364.341 51.256"><defs><style>.a{fill:#3d4852;}.b{fill:#142aa8;}.c{fill:url(#a);}.d{fill:url(#b);}.e{fill:url(#c);}.f{fill:url(#d);}.g{fill:#061283;}.h{fill:#ba4c15;}.i{fill:none;stroke:#25a9e0;stroke-miterlimit:10;}</style><linearGradient id="a" x1="0.5" x2="0.5" y2="1.003" gradientUnits="objectBoundingBox"><stop offset="0" stop-color="#fbb153"/><stop offset="0.149" stop-color="#f8a03d"/><stop offset="0.343" stop-color="#f58f27"/><stop offset="0.467" stop-color="#f5891f"/><stop offset="1" stop-color="#d55a31"/></linearGradient><linearGradient id="b" x1="-0.289" y1="1.39" x2="0.699" y2="0.018" gradientUnits="objectBoundingBox"><stop offset="0" stop-color="#061283"/><stop offset="0.145" stop-color="#1c1aac"/><stop offset="0.324" stop-color="#3524d8"/><stop offset="0.463" stop-color="#4429f4"/><stop offset="0.544" stop-color="#4a2cff"/><stop offset="0.998" stop-color="#1686ff"/></linearGradient><linearGradient id="c" x1="0.5" y1="0.096" x2="0.5" y2="0.975" gradientUnits="objectBoundingBox"><stop offset="0" stop-color="#ff9d32"/><stop offset="0.202" stop-color="#f98e28"/><stop offset="0.464" stop-color="#f5811f"/><stop offset="0.995" stop-color="#cb5423"/></linearGradient><linearGradient id="d" x1="-0.482" y1="1.195" x2="1.135" y2="0.051" gradientUnits="objectBoundingBox"><stop offset="0" stop-color="#061283"/><stop offset="0.126" stop-color="#191da7"/><stop offset="0.362" stop-color="#3c32e6"/><stop offset="0.474" stop-color="#4a3aff"/><stop offset="0.694" stop-color="#2e61ff"/><stop offset="0.879" stop-color="#1c7cff"/><stop offset="0.989" stop-color="#1686ff"/></linearGradient></defs><g transform="translate(-48.219 -157.27)"><path class="a" d="M6.444,3.488H3.828V11h-1V3.488H.216V2.6H6.444ZM11.436,11V7.58a5.513,5.513,0,0,0-.054-.822,1.566,1.566,0,0,0-.2-.588.926.926,0,0,0-.39-.354,1.471,1.471,0,0,0-.642-.12,1.589,1.589,0,0,0-1.02.366A1.645,1.645,0,0,0,8.544,7v4h-.96V2.6h.96V5.672h.048a2.362,2.362,0,0,1,.75-.594,2.387,2.387,0,0,1,1.086-.222,3,3,0,0,1,.876.114,1.293,1.293,0,0,1,.618.4,1.809,1.809,0,0,1,.36.774,5.518,5.518,0,0,1,.114,1.23V11Zm7.092-.48a2.712,2.712,0,0,1-.906.456,3.916,3.916,0,0,1-1.158.168,2.929,2.929,0,0,1-1.188-.222,2.113,2.113,0,0,1-.828-.636,2.753,2.753,0,0,1-.48-.99A4.961,4.961,0,0,1,13.812,8,3.52,3.52,0,0,1,14.5,5.66a2.426,2.426,0,0,1,1.956-.8,3.778,3.778,0,0,1,.816.09A1.724,1.724,0,0,1,18.528,6a3.052,3.052,0,0,1,.2,1.218,5.947,5.947,0,0,1-.072.876H14.808a3.671,3.671,0,0,0,.108.936,1.824,1.824,0,0,0,.336.69,1.458,1.458,0,0,0,.594.432,2.36,2.36,0,0,0,.894.15,2.438,2.438,0,0,0,.816-.144,1.734,1.734,0,0,0,.612-.336ZM16.464,5.7a1.663,1.663,0,0,0-1.134.372,1.862,1.862,0,0,0-.51,1.272H17.8a1.844,1.844,0,0,0-.348-1.278A1.293,1.293,0,0,0,16.464,5.7ZM30,5.36l.12-1.26h-.06L29.6,5.252,27.42,9.044h-.3L24.8,5.24,24.372,4.1h-.06l.168,1.248V11h-.936V2.6h.744l2.628,4.3.4.936h.024l.372-.96L30.216,2.6H31V11H30ZM32.6,8a3.546,3.546,0,0,1,.678-2.334,2.4,2.4,0,0,1,1.95-.81,2.853,2.853,0,0,1,1.17.222,2.123,2.123,0,0,1,.822.636,2.75,2.75,0,0,1,.48,1A4.979,4.979,0,0,1,37.86,8a3.546,3.546,0,0,1-.678,2.334,2.4,2.4,0,0,1-1.95.81,2.853,2.853,0,0,1-1.17-.222,2.123,2.123,0,0,1-.822-.636,2.75,2.75,0,0,1-.48-1A4.979,4.979,0,0,1,32.6,8Zm1,0a4.171,4.171,0,0,0,.09.876,2.309,2.309,0,0,0,.282.732,1.518,1.518,0,0,0,.5.5,1.415,1.415,0,0,0,.756.192q1.632.012,1.632-2.3a4.23,4.23,0,0,0-.09-.888,2.309,2.309,0,0,0-.282-.732,1.4,1.4,0,0,0-1.26-.684Q33.6,5.684,33.6,8Zm8.412,1.368A.738.738,0,0,0,41.8,8.8a1.829,1.829,0,0,0-.534-.342q-.318-.138-.7-.264a3.263,3.263,0,0,1-.7-.324,1.8,1.8,0,0,1-.534-.51,1.452,1.452,0,0,1-.216-.84,1.54,1.54,0,0,1,.492-1.266,2.1,2.1,0,0,1,1.368-.4,4.388,4.388,0,0,1,1.086.114,4.2,4.2,0,0,1,.762.27l-.228.792a3.76,3.76,0,0,0-.666-.234,3.286,3.286,0,0,0-.834-.1,1.323,1.323,0,0,0-.774.18.723.723,0,0,0-.246.624.589.589,0,0,0,.216.486,2.32,2.32,0,0,0,.534.312q.318.138.7.27a2.982,2.982,0,0,1,.7.348,1.93,1.93,0,0,1,.534.546,1.566,1.566,0,0,1,.216.87,2.034,2.034,0,0,1-.126.72,1.46,1.46,0,0,1-.39.576,1.9,1.9,0,0,1-.654.378,2.754,2.754,0,0,1-.918.138,4.442,4.442,0,0,1-1.164-.132,3.668,3.668,0,0,1-.8-.312l.288-.816a3.53,3.53,0,0,0,.72.288,3.142,3.142,0,0,0,.9.132,1.619,1.619,0,0,0,.852-.2A.786.786,0,0,0,42.012,9.368ZM43.632,5h.936V3.812l.96-.276V5H47.16v.84H45.528V9.164a1.811,1.811,0,0,0,.156.882.567.567,0,0,0,.528.258,1.827,1.827,0,0,0,.528-.066q.216-.066.48-.174l.216.732a3.692,3.692,0,0,1-.708.252,3.407,3.407,0,0,1-.828.1,1.19,1.19,0,0,1-1.032-.414,2.429,2.429,0,0,1-.3-1.386V5.84h-.936ZM52.02,2.6h1V11h-1ZM59.04,11V7.58a2.915,2.915,0,0,0-.27-1.41,1.04,1.04,0,0,0-.99-.474,1.594,1.594,0,0,0-1.05.342,1.822,1.822,0,0,0-.582.858V11h-.96V5h.672l.18.732h.048a2.173,2.173,0,0,1,.774-.63,2.537,2.537,0,0,1,1.158-.246,2.956,2.956,0,0,1,.864.114,1.293,1.293,0,0,1,.618.4,1.916,1.916,0,0,1,.372.774A5.011,5.011,0,0,1,60,7.376V11Zm1.92-6H61.9V3.812l.96-.276V5h1.632v.84H62.856V9.164a1.811,1.811,0,0,0,.156.882.567.567,0,0,0,.528.258,1.827,1.827,0,0,0,.528-.066q.216-.066.48-.174l.216.732a3.692,3.692,0,0,1-.708.252,3.407,3.407,0,0,1-.828.1A1.19,1.19,0,0,1,62.2,10.73a2.429,2.429,0,0,1-.3-1.386V5.84H60.96Zm5.724,0V8.42a5.512,5.512,0,0,0,.054.822,1.725,1.725,0,0,0,.186.588.876.876,0,0,0,.36.354,1.23,1.23,0,0,0,.576.12,1.525,1.525,0,0,0,.576-.1,1.5,1.5,0,0,0,.45-.282,2.054,2.054,0,0,0,.348-.414,2.508,2.508,0,0,0,.246-.5V5h.96V9.3q0,.432.03.894a5.94,5.94,0,0,0,.1.81h-.66l-.24-.948h-.06a2.386,2.386,0,0,1-.744.78,2.1,2.1,0,0,1-1.188.312,2.849,2.849,0,0,1-.846-.114,1.3,1.3,0,0,1-.612-.4,1.916,1.916,0,0,1-.372-.774,5.011,5.011,0,0,1-.126-1.23V5Zm5.808,0h.96v6h-.96Zm-.2-1.824a.668.668,0,0,1,.186-.474.622.622,0,0,1,.474-.2.681.681,0,0,1,.492.2.637.637,0,0,1,.2.474.582.582,0,0,1-.2.456.718.718,0,0,1-.492.18.654.654,0,0,1-.474-.18A.608.608,0,0,1,72.288,3.176ZM74.712,5h.936V3.812l.96-.276V5H78.24v.84H76.608V9.164a1.811,1.811,0,0,0,.156.882.567.567,0,0,0,.528.258,1.827,1.827,0,0,0,.528-.066q.216-.066.48-.174l.216.732a3.692,3.692,0,0,1-.708.252,3.407,3.407,0,0,1-.828.1,1.19,1.19,0,0,1-1.032-.414,2.429,2.429,0,0,1-.3-1.386V5.84h-.936Zm5.064,0h.96v6h-.96Zm-.2-1.824a.668.668,0,0,1,.186-.474.622.622,0,0,1,.474-.2.681.681,0,0,1,.492.2.637.637,0,0,1,.2.474.582.582,0,0,1-.2.456.718.718,0,0,1-.492.18.654.654,0,0,1-.474-.18A.608.608,0,0,1,79.572,3.176Zm4.944,5.34.336,1.14h.012l.3-1.164L86.508,5H87.54l-2.556,6.132h-.408L81.972,5h1.1Zm8.3,2a2.712,2.712,0,0,1-.906.456,3.916,3.916,0,0,1-1.158.168,2.929,2.929,0,0,1-1.188-.222,2.113,2.113,0,0,1-.828-.636,2.753,2.753,0,0,1-.48-.99A4.961,4.961,0,0,1,88.1,8a3.52,3.52,0,0,1,.684-2.34,2.426,2.426,0,0,1,1.956-.8,3.778,3.778,0,0,1,.816.09A1.724,1.724,0,0,1,92.82,6a3.052,3.052,0,0,1,.2,1.218,5.946,5.946,0,0,1-.072.876H89.1a3.671,3.671,0,0,0,.108.936,1.824,1.824,0,0,0,.336.69,1.458,1.458,0,0,0,.594.432,2.36,2.36,0,0,0,.894.15,2.438,2.438,0,0,0,.816-.144,1.734,1.734,0,0,0,.612-.336ZM90.756,5.7a1.663,1.663,0,0,0-1.134.372,1.862,1.862,0,0,0-.51,1.272h2.976a1.844,1.844,0,0,0-.348-1.278A1.293,1.293,0,0,0,90.756,5.7Zm13.536-.336.12-1.26h-.06L103.9,5.252l-2.184,3.792h-.3L99.1,5.24,98.664,4.1H98.6l.168,1.248V11h-.936V2.6h.744l2.628,4.3.4.936h.024l.372-.96L104.508,2.6h.78V11h-1ZM107.436,5h.96v6h-.96Zm-.2-1.824a.668.668,0,0,1,.186-.474.622.622,0,0,1,.474-.2.681.681,0,0,1,.492.2.637.637,0,0,1,.2.474.582.582,0,0,1-.2.456.718.718,0,0,1-.492.18.654.654,0,0,1-.474-.18A.608.608,0,0,1,107.232,3.176ZM114.54,10.6a2.624,2.624,0,0,1-.852.4,3.8,3.8,0,0,1-1.032.138,2.792,2.792,0,0,1-1.176-.222,2.008,2.008,0,0,1-.786-.636,2.7,2.7,0,0,1-.444-1A5.6,5.6,0,0,1,110.112,8a3.568,3.568,0,0,1,.672-2.334,2.368,2.368,0,0,1,1.932-.81,4.55,4.55,0,0,1,.978.09,2.989,2.989,0,0,1,.726.258l-.276.828a2.611,2.611,0,0,0-.612-.246,2.774,2.774,0,0,0-.72-.09q-1.7,0-1.7,2.3a4.086,4.086,0,0,0,.09.87,2.139,2.139,0,0,0,.3.732,1.573,1.573,0,0,0,.552.51,1.707,1.707,0,0,0,.846.192,2.137,2.137,0,0,0,.774-.132,2.2,2.2,0,0,0,.558-.3Zm4.152-4.68a2.164,2.164,0,0,0-.684-.12,1.143,1.143,0,0,0-.816.282,1.227,1.227,0,0,0-.372.714V11h-.96V5h.672l.18.732h.048a1.85,1.85,0,0,1,.546-.63,1.383,1.383,0,0,1,.81-.222,2.944,2.944,0,0,1,.78.12ZM119.6,8a3.546,3.546,0,0,1,.678-2.334,2.4,2.4,0,0,1,1.95-.81,2.853,2.853,0,0,1,1.17.222,2.123,2.123,0,0,1,.822.636,2.75,2.75,0,0,1,.48,1A4.979,4.979,0,0,1,124.86,8a3.546,3.546,0,0,1-.678,2.334,2.4,2.4,0,0,1-1.95.81,2.853,2.853,0,0,1-1.17-.222,2.123,2.123,0,0,1-.822-.636,2.75,2.75,0,0,1-.48-1A4.979,4.979,0,0,1,119.6,8Zm1,0a4.17,4.17,0,0,0,.09.876,2.309,2.309,0,0,0,.282.732,1.518,1.518,0,0,0,.5.5,1.415,1.415,0,0,0,.756.192q1.632.012,1.632-2.3a4.23,4.23,0,0,0-.09-.888,2.309,2.309,0,0,0-.282-.732,1.4,1.4,0,0,0-1.26-.684Q120.6,5.684,120.6,8Zm10.392-3v6h-.96V5.84h-2.424V11h-.96V5.84h-.936V5h.936V4.664a2.123,2.123,0,0,1,.558-1.638,2.35,2.35,0,0,1,1.638-.51,5.214,5.214,0,0,1,1.26.138,3.122,3.122,0,0,1,.864.33l-.324.768a2.37,2.37,0,0,0-.768-.3,4.48,4.48,0,0,0-.948-.1,1.959,1.959,0,0,0-.7.1.818.818,0,0,0-.4.312,1.241,1.241,0,0,0-.18.522,5.351,5.351,0,0,0-.042.708Zm5.712,6V7.58a2.915,2.915,0,0,0-.27-1.41,1.039,1.039,0,0,0-.99-.474,1.594,1.594,0,0,0-1.05.342,1.822,1.822,0,0,0-.582.858V11h-.96V5h.672l.18.732h.048a2.173,2.173,0,0,1,.774-.63,2.536,2.536,0,0,1,1.158-.246,2.956,2.956,0,0,1,.864.114,1.293,1.293,0,0,1,.618.4,1.916,1.916,0,0,1,.372.774,5.011,5.011,0,0,1,.126,1.23V11Zm2.616-5.556a3.457,3.457,0,0,1,1.062-.408,5.934,5.934,0,0,1,1.266-.132,2.5,2.5,0,0,1,1,.168,1.4,1.4,0,0,1,.576.438,1.5,1.5,0,0,1,.264.594,3.239,3.239,0,0,1,.066.648q0,.72-.036,1.4t-.036,1.3q0,.444.036.84a3.973,3.973,0,0,0,.132.732h-.708l-.252-.84h-.06a2,2,0,0,1-.27.33,1.731,1.731,0,0,1-.39.288,2.463,2.463,0,0,1-.528.21,2.541,2.541,0,0,1-.684.084,2.074,2.074,0,0,1-.714-.12,1.668,1.668,0,0,1-.57-.342,1.6,1.6,0,0,1-.378-.534,1.733,1.733,0,0,1-.138-.708,1.666,1.666,0,0,1,.216-.882,1.558,1.558,0,0,1,.606-.564,3,3,0,0,1,.936-.3,7.442,7.442,0,0,1,1.206-.09h.33a2.332,2.332,0,0,1,.33.024q.036-.36.036-.648a1.288,1.288,0,0,0-.264-.924,1.351,1.351,0,0,0-.96-.264,3.456,3.456,0,0,0-.438.03q-.234.03-.48.084a4,4,0,0,0-.468.132,2.371,2.371,0,0,0-.39.174Zm1.7,4.812a1.855,1.855,0,0,0,.6-.09,1.736,1.736,0,0,0,.456-.228,1.452,1.452,0,0,0,.318-.306,1.363,1.363,0,0,0,.186-.324v-1q-.168-.012-.342-.018t-.342-.006a6.158,6.158,0,0,0-.726.042,2.3,2.3,0,0,0-.624.156,1.1,1.1,0,0,0-.432.312.761.761,0,0,0-.162.5.887.887,0,0,0,.3.69A1.1,1.1,0,0,0,141.024,10.256Zm8.2.744V7.58a2.915,2.915,0,0,0-.27-1.41,1.04,1.04,0,0,0-.99-.474,1.594,1.594,0,0,0-1.05.342,1.822,1.822,0,0,0-.582.858V11h-.96V5h.672l.18.732h.048a2.173,2.173,0,0,1,.774-.63,2.536,2.536,0,0,1,1.158-.246,2.956,2.956,0,0,1,.864.114,1.293,1.293,0,0,1,.618.4,1.916,1.916,0,0,1,.372.774,5.011,5.011,0,0,1,.126,1.23V11Zm6.8-.4a2.624,2.624,0,0,1-.852.4,3.8,3.8,0,0,1-1.032.138,2.792,2.792,0,0,1-1.176-.222,2.008,2.008,0,0,1-.786-.636,2.7,2.7,0,0,1-.444-1A5.6,5.6,0,0,1,151.6,8a3.568,3.568,0,0,1,.672-2.334,2.368,2.368,0,0,1,1.932-.81,4.55,4.55,0,0,1,.978.09,2.989,2.989,0,0,1,.726.258l-.276.828a2.611,2.611,0,0,0-.612-.246,2.774,2.774,0,0,0-.72-.09q-1.7,0-1.7,2.3a4.086,4.086,0,0,0,.09.87,2.139,2.139,0,0,0,.3.732,1.573,1.573,0,0,0,.552.51,1.707,1.707,0,0,0,.846.192,2.137,2.137,0,0,0,.774-.132,2.2,2.2,0,0,0,.558-.3Zm5.424-.084a2.712,2.712,0,0,1-.906.456,3.916,3.916,0,0,1-1.158.168,2.929,2.929,0,0,1-1.188-.222,2.113,2.113,0,0,1-.828-.636,2.753,2.753,0,0,1-.48-.99,4.961,4.961,0,0,1-.156-1.3,3.52,3.52,0,0,1,.684-2.34,2.426,2.426,0,0,1,1.956-.8,3.778,3.778,0,0,1,.816.09A1.724,1.724,0,0,1,161.448,6a3.052,3.052,0,0,1,.2,1.218,5.948,5.948,0,0,1-.072.876h-3.852a3.67,3.67,0,0,0,.108.936,1.824,1.824,0,0,0,.336.69,1.458,1.458,0,0,0,.594.432,2.36,2.36,0,0,0,.894.15,2.438,2.438,0,0,0,.816-.144,1.734,1.734,0,0,0,.612-.336ZM159.384,5.7a1.663,1.663,0,0,0-1.134.372,1.862,1.862,0,0,0-.51,1.272h2.976a1.844,1.844,0,0,0-.348-1.278A1.293,1.293,0,0,0,159.384,5.7ZM4.812,22.864a1.149,1.149,0,0,0-.3-.822,3,3,0,0,0-.75-.564,9.679,9.679,0,0,0-.978-.462,5.305,5.305,0,0,1-.978-.522,2.753,2.753,0,0,1-.75-.756,2.026,2.026,0,0,1-.3-1.146,1.933,1.933,0,0,1,.684-1.56,2.936,2.936,0,0,1,1.944-.576,7.546,7.546,0,0,1,1.332.108,3.565,3.565,0,0,1,.936.276l-.3.876a4.012,4.012,0,0,0-.81-.252,5.521,5.521,0,0,0-1.206-.12,1.735,1.735,0,0,0-1.188.354,1.116,1.116,0,0,0-.1,1.614,3.079,3.079,0,0,0,.75.558q.45.246.978.486a5.97,5.97,0,0,1,.978.558,2.951,2.951,0,0,1,.75.762,1.928,1.928,0,0,1,.3,1.1,2.369,2.369,0,0,1-.192.972,2.045,2.045,0,0,1-.564.744,2.617,2.617,0,0,1-.9.48,3.953,3.953,0,0,1-1.2.168,6.672,6.672,0,0,1-1.488-.138A4.066,4.066,0,0,1,.552,24.7l.336-.9a3.8,3.8,0,0,0,.816.306,4.529,4.529,0,0,0,1.212.15,3.4,3.4,0,0,0,.744-.078,1.7,1.7,0,0,0,.6-.252,1.316,1.316,0,0,0,.4-.438A1.242,1.242,0,0,0,4.812,22.864Zm6.576-.192h-3.1L7.452,25H6.468l3.18-8.532H10.1L13.3,25H12.252Zm-2.772-.864h2.472l-.936-2.556-.3-1.272H9.84l-.3,1.3Zm10.872,2.844a2.157,2.157,0,0,1-.912.384,6.12,6.12,0,0,1-1.176.108,3.855,3.855,0,0,1-1.416-.258,3.1,3.1,0,0,1-1.152-.786,3.786,3.786,0,0,1-.78-1.35,5.91,5.91,0,0,1-.288-1.95,5.552,5.552,0,0,1,.318-2,3.817,3.817,0,0,1,.84-1.344,3.233,3.233,0,0,1,1.17-.762,3.773,3.773,0,0,1,1.32-.24,7.212,7.212,0,0,1,1.176.078,3.766,3.766,0,0,1,.78.21l-.24.876a3.906,3.906,0,0,0-1.644-.276,2.749,2.749,0,0,0-.972.18,2.231,2.231,0,0,0-.858.588,2.98,2.98,0,0,0-.606,1.068,5,5,0,0,0-.228,1.62,4.787,4.787,0,0,0,.216,1.512,3.112,3.112,0,0,0,.594,1.08,2.426,2.426,0,0,0,.888.648,2.817,2.817,0,0,0,1.11.216,3.654,3.654,0,0,0,.942-.108,2.6,2.6,0,0,0,.678-.276Zm6.54,0a2.157,2.157,0,0,1-.912.384,6.12,6.12,0,0,1-1.176.108,3.855,3.855,0,0,1-1.416-.258,3.1,3.1,0,0,1-1.152-.786,3.786,3.786,0,0,1-.78-1.35A5.91,5.91,0,0,1,20.3,20.8a5.552,5.552,0,0,1,.318-2,3.817,3.817,0,0,1,.84-1.344,3.232,3.232,0,0,1,1.17-.762,3.773,3.773,0,0,1,1.32-.24,7.212,7.212,0,0,1,1.176.078,3.766,3.766,0,0,1,.78.21l-.24.876a3.906,3.906,0,0,0-1.644-.276,2.749,2.749,0,0,0-.972.18,2.231,2.231,0,0,0-.858.588,2.98,2.98,0,0,0-.606,1.068,5,5,0,0,0-.228,1.62,4.787,4.787,0,0,0,.216,1.512,3.112,3.112,0,0,0,.594,1.08,2.426,2.426,0,0,0,.888.648,2.817,2.817,0,0,0,1.11.216,3.654,3.654,0,0,0,.942-.108,2.6,2.6,0,0,0,.678-.276Zm.816-3.852a5.091,5.091,0,0,1,.888-3.222,3.041,3.041,0,0,1,2.532-1.122,3.508,3.508,0,0,1,1.536.312,2.881,2.881,0,0,1,1.074.882,3.85,3.85,0,0,1,.63,1.368,7.2,7.2,0,0,1,.2,1.782,5.067,5.067,0,0,1-.894,3.222,3.071,3.071,0,0,1-2.55,1.122,3.439,3.439,0,0,1-1.518-.312,2.893,2.893,0,0,1-1.068-.882,3.85,3.85,0,0,1-.63-1.368A7.2,7.2,0,0,1,26.844,20.8Zm1.056,0a6.1,6.1,0,0,0,.138,1.32,3.593,3.593,0,0,0,.426,1.1,2.263,2.263,0,0,0,.738.756,1.958,1.958,0,0,0,1.062.282,2.071,2.071,0,0,0,1.752-.846,4.346,4.346,0,0,0,.636-2.61,6.125,6.125,0,0,0-.138-1.314,3.5,3.5,0,0,0-.432-1.1,2.318,2.318,0,0,0-.744-.756,1.981,1.981,0,0,0-1.074-.282,2.043,2.043,0,0,0-1.734.846A4.378,4.378,0,0,0,27.9,20.8Zm14.5,2.064a1.149,1.149,0,0,0-.3-.822,3,3,0,0,0-.75-.564,9.678,9.678,0,0,0-.978-.462,5.305,5.305,0,0,1-.978-.522,2.753,2.753,0,0,1-.75-.756,2.026,2.026,0,0,1-.3-1.146,1.933,1.933,0,0,1,.684-1.56,2.936,2.936,0,0,1,1.944-.576,7.546,7.546,0,0,1,1.332.108,3.565,3.565,0,0,1,.936.276l-.3.876a4.012,4.012,0,0,0-.81-.252,5.521,5.521,0,0,0-1.206-.12,1.735,1.735,0,0,0-1.188.354,1.116,1.116,0,0,0-.1,1.614,3.079,3.079,0,0,0,.75.558q.45.246.978.486a5.97,5.97,0,0,1,.978.558,2.951,2.951,0,0,1,.75.762,1.928,1.928,0,0,1,.3,1.1,2.369,2.369,0,0,1-.192.972,2.045,2.045,0,0,1-.564.744,2.617,2.617,0,0,1-.9.48,3.953,3.953,0,0,1-1.2.168,6.672,6.672,0,0,1-1.488-.138,4.066,4.066,0,0,1-.912-.306l.336-.9a3.8,3.8,0,0,0,.816.306,4.529,4.529,0,0,0,1.212.15,3.4,3.4,0,0,0,.744-.078,1.7,1.7,0,0,0,.6-.252,1.316,1.316,0,0,0,.4-.438A1.242,1.242,0,0,0,42.4,22.864ZM44.544,22a3.546,3.546,0,0,1,.678-2.334,2.4,2.4,0,0,1,1.95-.81,2.853,2.853,0,0,1,1.17.222,2.123,2.123,0,0,1,.822.636,2.75,2.75,0,0,1,.48,1A4.979,4.979,0,0,1,49.8,22a3.546,3.546,0,0,1-.678,2.334,2.4,2.4,0,0,1-1.95.81A2.853,2.853,0,0,1,46,24.922a2.123,2.123,0,0,1-.822-.636,2.75,2.75,0,0,1-.48-1A4.979,4.979,0,0,1,44.544,22Zm1,0a4.171,4.171,0,0,0,.09.876,2.309,2.309,0,0,0,.282.732,1.518,1.518,0,0,0,.5.5,1.415,1.415,0,0,0,.756.192Q48.8,24.316,48.8,22a4.23,4.23,0,0,0-.09-.888,2.309,2.309,0,0,0-.282-.732,1.4,1.4,0,0,0-1.26-.684Q45.54,19.684,45.54,22Zm4.968-3h.936v-.336a4.5,4.5,0,0,1,.09-.96,1.622,1.622,0,0,1,.294-.666,1.224,1.224,0,0,1,.528-.384,2.232,2.232,0,0,1,.8-.126,4.249,4.249,0,0,1,.678.048,2.871,2.871,0,0,1,.618.18l-.216.8a2.068,2.068,0,0,0-.522-.156,3.2,3.2,0,0,0-.462-.036,1.016,1.016,0,0,0-.486.1.56.56,0,0,0-.252.282,1.43,1.43,0,0,0-.1.456q-.018.27-.018.63V19H54v.84H52.4V25h-.96V19.84h-.936Zm3.5,0h.936V17.812l.96-.276V19H57.54v.84H55.908v3.324a1.811,1.811,0,0,0,.156.882.567.567,0,0,0,.528.258,1.827,1.827,0,0,0,.528-.066q.216-.066.48-.174l.216.732a3.692,3.692,0,0,1-.708.252,3.407,3.407,0,0,1-.828.1,1.19,1.19,0,0,1-1.032-.414,2.429,2.429,0,0,1-.3-1.386v-3.5h-.936Zm8.748,0,1.38,3.5.3,1.152h.024l.228-1.176L65.76,19h.912l-2.016,6.132h-.468l-1.572-3.96-.228-.984h-.036l-.24,1L60.6,25.132h-.468L58.044,19h1.044l1.188,3.492.2,1.164h.012l.288-1.188L62.064,19Zm4.836.444a3.457,3.457,0,0,1,1.062-.408,5.934,5.934,0,0,1,1.266-.132,2.5,2.5,0,0,1,1,.168,1.4,1.4,0,0,1,.576.438,1.5,1.5,0,0,1,.264.594,3.239,3.239,0,0,1,.066.648q0,.72-.036,1.4t-.036,1.3q0,.444.036.84a3.974,3.974,0,0,0,.132.732H71.22l-.252-.84h-.06a2,2,0,0,1-.27.33,1.731,1.731,0,0,1-.39.288,2.463,2.463,0,0,1-.528.21,2.541,2.541,0,0,1-.684.084,2.074,2.074,0,0,1-.714-.12,1.668,1.668,0,0,1-.57-.342,1.6,1.6,0,0,1-.378-.534,1.733,1.733,0,0,1-.138-.708,1.666,1.666,0,0,1,.216-.882,1.558,1.558,0,0,1,.606-.564,3,3,0,0,1,.936-.3,7.442,7.442,0,0,1,1.206-.09h.33a2.332,2.332,0,0,1,.33.024q.036-.36.036-.648a1.288,1.288,0,0,0-.264-.924,1.351,1.351,0,0,0-.96-.264,3.455,3.455,0,0,0-.438.03q-.234.03-.48.084a4,4,0,0,0-.468.132,2.371,2.371,0,0,0-.39.174Zm1.7,4.812a1.855,1.855,0,0,0,.6-.09,1.736,1.736,0,0,0,.456-.228,1.452,1.452,0,0,0,.318-.306,1.363,1.363,0,0,0,.186-.324v-1q-.168-.012-.342-.018t-.342-.006a6.158,6.158,0,0,0-.726.042,2.3,2.3,0,0,0-.624.156,1.1,1.1,0,0,0-.432.312.761.761,0,0,0-.162.5.887.887,0,0,0,.3.69A1.1,1.1,0,0,0,69.3,24.256Zm7.176-4.332a2.164,2.164,0,0,0-.684-.12,1.143,1.143,0,0,0-.816.282,1.227,1.227,0,0,0-.372.714V25h-.96V19h.672l.18.732h.048a1.85,1.85,0,0,1,.546-.63,1.383,1.383,0,0,1,.81-.222,2.944,2.944,0,0,1,.78.12Zm5.628,4.6a2.712,2.712,0,0,1-.906.456,3.916,3.916,0,0,1-1.158.168,2.929,2.929,0,0,1-1.188-.222,2.113,2.113,0,0,1-.828-.636,2.753,2.753,0,0,1-.48-.99,4.961,4.961,0,0,1-.156-1.3,3.52,3.52,0,0,1,.684-2.34,2.426,2.426,0,0,1,1.956-.8,3.778,3.778,0,0,1,.816.09A1.724,1.724,0,0,1,82.1,20a3.052,3.052,0,0,1,.2,1.218,5.946,5.946,0,0,1-.072.876H78.384a3.671,3.671,0,0,0,.108.936,1.824,1.824,0,0,0,.336.69,1.458,1.458,0,0,0,.594.432,2.36,2.36,0,0,0,.894.15,2.438,2.438,0,0,0,.816-.144,1.734,1.734,0,0,0,.612-.336ZM80.04,19.7a1.663,1.663,0,0,0-1.134.372,1.862,1.862,0,0,0-.51,1.272h2.976a1.844,1.844,0,0,0-.348-1.278A1.293,1.293,0,0,0,80.04,19.7Z" transform="translate(250.908 163.208)"/><g transform="translate(48.219 156.253)"><path class="b" d="M8.688-4.512A1.561,1.561,0,0,0,8.124-5.76a6.223,6.223,0,0,0-1.416-.876q-.852-.4-1.848-.816A9.447,9.447,0,0,1,3.012-8.484,5.263,5.263,0,0,1,1.6-10.008a4.363,4.363,0,0,1-.564-2.328A5.107,5.107,0,0,1,1.44-14.46,3.985,3.985,0,0,1,2.6-15.96a5,5,0,0,1,1.788-.888,8.566,8.566,0,0,1,2.3-.288,14.449,14.449,0,0,1,2.76.252,7.015,7.015,0,0,1,2.136.732l-1.032,2.76A5.774,5.774,0,0,0,8.976-14,8.994,8.994,0,0,0,6.7-14.28a2.916,2.916,0,0,0-1.764.456A1.449,1.449,0,0,0,4.32-12.6a1.512,1.512,0,0,0,.564,1.2,6.529,6.529,0,0,0,1.416.888q.852.408,1.848.84A9.927,9.927,0,0,1,10-8.628a5.322,5.322,0,0,1,1.416,1.512,4.152,4.152,0,0,1,.564,2.244,5.538,5.538,0,0,1-.444,2.316,4.39,4.39,0,0,1-1.248,1.62A5.272,5.272,0,0,1,8.34.024,9.485,9.485,0,0,1,5.832.336,13.362,13.362,0,0,1,2.664,0,9.691,9.691,0,0,1,.648-.672L1.7-3.48a6.525,6.525,0,0,0,.684.312,8.792,8.792,0,0,0,.948.312,10.945,10.945,0,0,0,1.116.24,7.511,7.511,0,0,0,1.212.1,4.226,4.226,0,0,0,2.244-.492A1.652,1.652,0,0,0,8.688-4.512ZM14.016-11.3a10.266,10.266,0,0,1,2.28-.684,14.694,14.694,0,0,1,2.76-.252,6.267,6.267,0,0,1,2.088.3,3.169,3.169,0,0,1,1.332.852,3.175,3.175,0,0,1,.7,1.32,6.738,6.738,0,0,1,.2,1.728q0,1.056-.072,2.124t-.084,2.1q-.012,1.032.06,2A7.547,7.547,0,0,0,23.64.024H21.1l-.5-1.656h-.12A4.271,4.271,0,0,1,19.14-.348a4.041,4.041,0,0,1-2.2.54A4.281,4.281,0,0,1,15.432-.06,3.273,3.273,0,0,1,14.28-.78a3.28,3.28,0,0,1-.744-1.1,3.693,3.693,0,0,1-.264-1.428,3.339,3.339,0,0,1,.492-1.86A3.558,3.558,0,0,1,15.18-6.4a7.034,7.034,0,0,1,2.208-.648,15.646,15.646,0,0,1,2.868-.108,3.118,3.118,0,0,0-.192-1.932q-.36-.588-1.608-.588a10.963,10.963,0,0,0-1.98.192,7.239,7.239,0,0,0-1.716.5Zm3.96,8.928a2.4,2.4,0,0,0,1.488-.42,2.93,2.93,0,0,0,.816-.9v-1.56a8.583,8.583,0,0,0-1.428-.024,5.211,5.211,0,0,0-1.212.216,2.038,2.038,0,0,0-.84.48,1.073,1.073,0,0,0-.312.792,1.363,1.363,0,0,0,.4,1.044A1.532,1.532,0,0,0,17.976-2.376ZM30.144-5.712l.408,1.848h.12l.336-1.9L33.048-12h3.36L31.392.12H29.5L24.288-12h3.624ZM37.728-12h3.12V0h-3.12Zm-.456-3.384a1.582,1.582,0,0,1,.516-1.188,1.985,1.985,0,0,1,1.428-.492,2.164,2.164,0,0,1,1.476.492,1.522,1.522,0,0,1,.564,1.188,1.454,1.454,0,0,1-.564,1.164,2.236,2.236,0,0,1-1.476.468,2.048,2.048,0,0,1-1.428-.468A1.507,1.507,0,0,1,37.272-15.384ZM51.24,0V-6.816a4.022,4.022,0,0,0-.42-2.112,1.571,1.571,0,0,0-1.428-.648,2.248,2.248,0,0,0-1.5.516,2.866,2.866,0,0,0-.876,1.284V0H43.9V-12h2.472l.36,1.584h.1a5.173,5.173,0,0,1,1.464-1.344,4.341,4.341,0,0,1,2.352-.576,4.846,4.846,0,0,1,1.584.24A2.7,2.7,0,0,1,53.4-11.3a3.6,3.6,0,0,1,.72,1.5,9.7,9.7,0,0,1,.24,2.34V0ZM67.128,0a4.85,4.85,0,0,1-1.416,3.852,5.827,5.827,0,0,1-3.96,1.236,12.159,12.159,0,0,1-2.724-.24,6.854,6.854,0,0,1-1.5-.5l.648-2.472q.552.216,1.284.432a6.5,6.5,0,0,0,1.812.216,2.792,2.792,0,0,0,2.22-.708,3.013,3.013,0,0,0,.588-1.98V-.936h-.1A3.486,3.486,0,0,1,61.008.192a4.153,4.153,0,0,1-3.468-1.44A7.249,7.249,0,0,1,56.4-5.76a6.925,6.925,0,0,1,1.536-4.872A5.79,5.79,0,0,1,62.4-12.288a15.763,15.763,0,0,1,2.748.216,11.545,11.545,0,0,1,1.98.5Zm-5.28-2.3a2.144,2.144,0,0,0,1.4-.408,2.57,2.57,0,0,0,.756-1.224v-5.4a4.793,4.793,0,0,0-1.848-.312,2.2,2.2,0,0,0-1.872.9,4.84,4.84,0,0,0-.672,2.868,5.029,5.029,0,0,0,.576,2.664A1.845,1.845,0,0,0,61.848-2.3Zm12.96-1.008A.9.9,0,0,0,74.4-4.08a4.915,4.915,0,0,0-1.008-.528q-.6-.24-1.32-.492a4.959,4.959,0,0,1-1.32-.7,3.812,3.812,0,0,1-1.008-1.128,3.407,3.407,0,0,1-.408-1.764A3.433,3.433,0,0,1,70.392-11.4a4.454,4.454,0,0,1,3.048-.936,9.8,9.8,0,0,1,2.472.288,7.152,7.152,0,0,1,1.728.648l-.7,2.256q-.552-.216-1.392-.456a6.174,6.174,0,0,0-1.7-.24q-1.392,0-1.392,1.08a.8.8,0,0,0,.408.7,5.385,5.385,0,0,0,1.008.492q.6.228,1.32.492a5.728,5.728,0,0,1,1.32.684A3.577,3.577,0,0,1,77.52-5.3a3.289,3.289,0,0,1,.408,1.728A3.656,3.656,0,0,1,76.764-.708,5.089,5.089,0,0,1,73.272.336,8.528,8.528,0,0,1,70.884.012a7.35,7.35,0,0,1-1.812-.756l.864-2.328A8.327,8.327,0,0,0,71.4-2.46a5.953,5.953,0,0,0,1.872.3,2.076,2.076,0,0,0,1.116-.264A.967.967,0,0,0,74.808-3.312ZM1.44,5.368q1.008-.192,2.22-.3T6.072,4.96a15.67,15.67,0,0,1,2.508.2,6.247,6.247,0,0,1,2.268.816,4.738,4.738,0,0,1,1.644,1.7,5.608,5.608,0,0,1,.636,2.844,5.886,5.886,0,0,1-.552,2.676,5.108,5.108,0,0,1-1.464,1.788A5.9,5.9,0,0,1,9.036,16a9.276,9.276,0,0,1-2.412.312H6.24q-.264,0-.552-.012t-.564-.036q-.276-.024-.4-.048V22H1.44Zm4.9,2.424q-.48,0-.912.036t-.7.084V13.36a2.632,2.632,0,0,0,.288.048q.192.024.408.036t.42.012h.3a6.91,6.91,0,0,0,1.284-.12,3.173,3.173,0,0,0,1.14-.444,2.314,2.314,0,0,0,.8-.9,3.278,3.278,0,0,0,.3-1.512,2.66,2.66,0,0,0-.288-1.308,2.357,2.357,0,0,0-.756-.828A2.944,2.944,0,0,0,7.56,7.912,6.226,6.226,0,0,0,6.336,7.792ZM18.312,17.968a2.612,2.612,0,0,0,.216,1.224.739.739,0,0,0,.7.384,3.286,3.286,0,0,0,.564-.048,3.41,3.41,0,0,0,.684-.216l.336,2.448a5.91,5.91,0,0,1-1.176.384A6.9,6.9,0,0,1,18,22.336a3.06,3.06,0,0,1-2.088-.636,2.677,2.677,0,0,1-.72-2.1V5.2h3.12ZM25.152,10v6.816a4.728,4.728,0,0,0,.348,2.112,1.4,1.4,0,0,0,1.356.648,2.127,2.127,0,0,0,1.476-.528,3.242,3.242,0,0,0,.876-1.3V10h3.12v8.352a19.167,19.167,0,0,0,.1,1.932A12.151,12.151,0,0,0,32.712,22H30.36l-.552-1.776h-.1a4.485,4.485,0,0,1-1.536,1.512,4.384,4.384,0,0,1-2.328.6,5.149,5.149,0,0,1-1.632-.24,2.682,2.682,0,0,1-1.2-.792,3.7,3.7,0,0,1-.732-1.488,9.227,9.227,0,0,1-.252-2.352V10Zm14.88,8.688a.9.9,0,0,0-.408-.768,4.915,4.915,0,0,0-1.008-.528q-.6-.24-1.32-.492a4.959,4.959,0,0,1-1.32-.7,3.812,3.812,0,0,1-1.008-1.128,3.407,3.407,0,0,1-.408-1.764A3.433,3.433,0,0,1,35.616,10.6a4.454,4.454,0,0,1,3.048-.936,9.8,9.8,0,0,1,2.472.288,7.152,7.152,0,0,1,1.728.648l-.7,2.256q-.552-.216-1.392-.456a6.174,6.174,0,0,0-1.7-.24q-1.392,0-1.392,1.08a.8.8,0,0,0,.408.7,5.385,5.385,0,0,0,1.008.492q.6.228,1.32.492a5.728,5.728,0,0,1,1.32.684A3.577,3.577,0,0,1,42.744,16.7a3.289,3.289,0,0,1,.408,1.728,3.656,3.656,0,0,1-1.164,2.868A5.089,5.089,0,0,1,38.5,22.336a8.528,8.528,0,0,1-2.388-.324,7.35,7.35,0,0,1-1.812-.756l.864-2.328a8.327,8.327,0,0,0,1.464.612,5.953,5.953,0,0,0,1.872.3,2.076,2.076,0,0,0,1.116-.264A.967.967,0,0,0,40.032,18.688Z" transform="translate(90.666 22)"/><path class="c" d="M89.488,170.581A21.653,21.653,0,0,0,51.53,191.426Z" transform="translate(-48.05 -155.478)"/><path class="d" d="M98.309,195.929a19.43,19.43,0,0,0-.191-38.856Z" transform="translate(-36.223 -156.056)"/><path class="e" d="M48.219,193.483a21.653,21.653,0,0,0,37.958-20.846Z" transform="translate(-48.219 -152.314)"/><path class="f" d="M84.412,207.694l-.2-40.314L98.3,159.515l.2,40.314Z" transform="translate(-39.566 -155.469)"/><path class="g" d="M95.556,160.129l3.222-3.018.1,38.856-3.215,4.476Z" transform="translate(-36.839 -156.047)"/><path class="h" d="M89.657,168.429l-3.48,5.22L48.219,194.494l3.48-5.22Z" transform="translate(-48.219 -153.326)"/></g><line class="i" y2="35.186" transform="translate(235.116 165.305)"/></g></svg>