<svg xmlns="http://www.w3.org/2000/svg" width="44.563" height="57.957" viewBox="0 0 44.563 57.957"><defs><style>.a{fill:#fff;}</style></defs><g transform="translate(-34.32)"><path class="a" d="M101.339,22.874A11.437,11.437,0,1,0,89.9,11.437,11.45,11.45,0,0,0,101.339,22.874Z" transform="translate(-44.736)"/><path class="a" d="M71.95,141.274l-.019-.006c-1.489-.364-6.049-1-6.049-1a1.014,1.014,0,0,0-1.25.622l-6.864,18.833a1.239,1.239,0,0,1-2.328,0l-6.864-18.833a1.014,1.014,0,0,0-.952-.667c-.1,0-4.787.657-6.348,1.046-4.265,1.061-6.956,5.255-6.956,9.626v15.67a4.252,4.252,0,0,0,4.252,4.252H74.631a4.252,4.252,0,0,0,4.252-4.252V150.841A10.063,10.063,0,0,0,71.95,141.274Z" transform="translate(0 -112.858)"/><path class="a" d="M138.872,136.763a1.458,1.458,0,0,0-1.08-.449h-3.022a1.459,1.459,0,0,0-1.079.449,1.4,1.4,0,0,0-.185,1.651l1.615,2.435-.756,6.379,1.489,3.961a.454.454,0,0,0,.854,0l1.489-3.961-.756-6.379,1.615-2.435A1.4,1.4,0,0,0,138.872,136.763Z" transform="translate(-79.68 -109.713)"/></g></svg>