<svg xmlns="http://www.w3.org/2000/svg" width="60.039" height="55" viewBox="0 0 60.039 55"><defs><style>.a{fill:#fff;}</style></defs><g transform="translate(0.001 -13.814)"><g transform="translate(-0.001 13.814)"><path class="a" d="M36.027,35.257a.977.977,0,0,0,.844.212,1,1,0,0,0,.694-.541c.051-.1.6-1.071,2.451-.9a8.873,8.873,0,0,1,3.934,1.294.981.981,0,0,0,1.23-.077l5.882-5.392a.983.983,0,0,0,.214-1.162l-2.466-4.93c2.565-4.342,7.717-4.689,9.274-4.689.2,0,.325.007.41.01l1.225-.01a.981.981,0,0,0,.654-1.7,13.647,13.647,0,0,0-9.527-3.553c-7.471,0-15.206,4.945-16.775,8.279a24.814,24.814,0,0,1-4.219,6.343.98.98,0,0,0,.047,1.428Z" transform="translate(-24.174 -13.814)"/><path class="a" d="M6.961,114.666a.984.984,0,0,0,.635.233.847.847,0,0,0,.086,0,.975.975,0,0,0,.671-.353l3.431-4.166a.979.979,0,0,0-.107-1.357L5.3,103.382a.993.993,0,0,0-.71-.244.98.98,0,0,0-.675.33L.244,107.635a.979.979,0,0,0,.1,1.394Z" transform="translate(0.001 -86.847)"/><path class="a" d="M59.841,64.068a.985.985,0,0,0-.221-.32L42.866,47.676l-6.822-6.657L50.1,28.026l.7.7a.981.981,0,0,0,.693.287h.041a.98.98,0,0,0,.708-.347l5.183-6.136a.982.982,0,0,0-.133-1.4l-1.919-1.548a.983.983,0,0,0-1.228,0l-6.082,4.865a.983.983,0,0,0-.08,1.46l.729.728L34.639,39.648l-5.19-5.065a.982.982,0,0,0-1.328-.037l-6.74,5.882a.979.979,0,0,0-.072,1.409l5.085,5.435-.643.595-2.477-2.507a.981.981,0,0,0-1.335-.055L.521,63.712a1,1,0,0,0-.261.356c-.716,1.659.311,4.28,2.554,6.523,1.706,1.707,3.748,2.768,5.331,2.768A2.834,2.834,0,0,0,9.581,73a.938.938,0,0,0,.2-.155L29.548,53.1a.981.981,0,0,0,0-1.383l-2.424-2.453.6-.558L50.293,72.824a1.055,1.055,0,0,0,.225.178,2.829,2.829,0,0,0,1.437.356c1.582,0,3.624-1.061,5.331-2.767C59.53,68.348,60.557,65.727,59.841,64.068ZM3.459,65.779a.49.49,0,0,1-.32-.861l17.99-15.584a.49.49,0,0,1,.641.741L3.779,65.659A.487.487,0,0,1,3.459,65.779Zm2.574,2.573a.49.49,0,0,1-.341-.842L22.664,50.987a.49.49,0,0,1,.683.7L6.374,68.213A.487.487,0,0,1,6.032,68.352ZM25.741,53.276,8.952,70.168a.484.484,0,0,1-.347.144.49.49,0,0,1-.348-.836L25.046,52.584a.49.49,0,1,1,.7.691Z" transform="translate(-0.028 -18.358)"/></g></g></svg>